<svg xmlns="http://www.w3.org/2000/svg" viewBox="0 0 377.98 377.98"><defs><style>.cls-1{fill:#6eb52c;}.cls-2{fill:#fefffd;}.cls-3{fill:#fff;}</style></defs><title>Asset 35</title><g id="Layer_2" data-name="Layer 2"><g id="Capa_1" data-name="Capa 1"><rect class="cls-1" width="377.98" height="377.98"/><path class="cls-2" d="M261.46,200.38A19.8,19.8,0,0,0,243,192.44a19.78,19.78,0,0,0-19.67-9.83,19.56,19.56,0,0,0-34.14,0,19.78,19.78,0,0,0-19.66,9.83,19.71,19.71,0,0,0-21.23,25.93,4.92,4.92,0,0,0,4.56,3.4H259.5a4.92,4.92,0,0,0,4.68-3.4A19.84,19.84,0,0,0,261.46,200.38Z"/><path class="cls-2" d="M260.34,93.39H212.81V163a29.75,29.75,0,0,1,15.47,9.17A29.82,29.82,0,0,1,247.91,182a30.28,30.28,0,0,1,17.34,7.44v-96Zm-4.92,59H222.64v-9.83h32.78Zm0-19.67H222.64v-9.83h32.78Zm0-19.66H222.64v-9.84h32.78Z"/><path class="cls-2" d="M114.44,71V221.77h24.61c0-.14-.13-.23-.16-.37a29.59,29.59,0,0,1,1.62-22.58H134.1V179.16h9.84v14.5a31.3,31.3,0,0,1,9.83-8v-6.45h9.83v3.5c.32,0,.64-.1,1-.13,2.53-2.82,8.21-9.5,18.72-8.75A29.69,29.69,0,0,1,202.93,163V71Zm29.5,98.33H134.1V149.66h9.84Zm0-29.49H134.1V120.16h9.84Zm0-29.5H134.1V93.94h9.84Zm19.66,59h-9.83V149.66h9.83Zm0-29.49h-9.83V120.16h9.83Zm0-29.5h-9.83V93.94h9.83Zm19.63,59h-9.84V149.66h9.84Zm0-29.49h-9.83V120.16h9.83Zm0-29.5h-9.83V93.94h9.83Z"/><path class="cls-3" d="M50.4,276.17a1.58,1.58,0,0,1,1.69-1.32,1.54,1.54,0,0,1,1.68,1.32l6.17,21.59H60l3.48-21.34a1.63,1.63,0,0,1,1.76-1.57,1.43,1.43,0,0,1,1.53,1.53,9.48,9.48,0,0,1-.2,1.68l-4.05,21.79c-.28,1.56-1,2.2-2.44,2.2s-2.05-.6-2.49-2.2l-5.48-19.59h-.08l-5.49,19.59c-.44,1.6-1.12,2.2-2.48,2.2s-2.17-.64-2.45-2.2l-4-21.79a7.17,7.17,0,0,1-.2-1.64,1.44,1.44,0,0,1,1.52-1.57,1.63,1.63,0,0,1,1.76,1.57l3.49,21.34h.08Z"/><path class="cls-3" d="M86,291.84c0,5.92-3.69,10.21-8.77,10.21s-8.78-4.29-8.78-10.13c0-6,3.65-10.3,8.78-10.3S86,285.91,86,291.84Zm-14.26,0c0,4.52,2.16,7.41,5.49,7.41s5.48-2.93,5.48-7.37-2.16-7.37-5.48-7.37S71.71,287.39,71.71,291.8Z"/><path class="cls-3" d="M92.81,284.27a6.75,6.75,0,0,1,5.49-2.65c4.21,0,7,3,7,7.57v11.1a1.64,1.64,0,1,1-3.28,0v-10.9c0-2.92-1.89-4.92-4.65-4.92s-4.61,2-4.61,4.92v10.9a1.64,1.64,0,1,1-3.28,0V274.61a1.64,1.64,0,1,1,3.28,0v9.58Z"/><path class="cls-3" d="M113,284.27a6.72,6.72,0,0,1,5.49-2.65c4.2,0,7,3,7,7.57v11.1a1.65,1.65,0,1,1-3.29,0v-10.9c0-2.92-1.88-4.92-4.64-4.92s-4.61,2-4.61,4.92v10.9a1.64,1.64,0,1,1-3.28,0V283.38a1.64,1.64,0,1,1,3.28,0v.81Z"/><path class="cls-3" d="M131.9,293.12a6.14,6.14,0,0,0,1.72,4.48,5.71,5.71,0,0,0,4.25,1.61,7.62,7.62,0,0,0,5.29-2c.76-.6,1.08-.76,1.44-.76a1.34,1.34,0,0,1,1.16,1.4c0,1.93-4.4,4.17-8.13,4.17-5.41,0-9-4.05-9-10.13s3.76-10.3,8.89-10.3c4.89,0,8.65,4.21,8.65,9.66,0,1.36-.48,1.84-1.84,1.84Zm11-2.49c-.16-3.88-2.21-6.16-5.53-6.16s-5.17,2.08-5.45,6.16Z"/><path class="cls-3" d="M152.69,284.27a6.72,6.72,0,0,1,5.49-2.65c4.2,0,7,3,7,7.57v11.1a1.64,1.64,0,1,1-3.28,0v-10.9c0-2.92-1.88-4.92-4.65-4.92s-4.6,2-4.6,4.92v10.9a1.65,1.65,0,1,1-3.29,0V283.38a1.65,1.65,0,1,1,3.29,0v.81Z"/><path class="cls-3" d="M178.88,283.38a1.64,1.64,0,1,1,3.28,0V294c0,3.48,1.57,5.25,4.61,5.25s4.65-1.77,4.65-5.25V283.38a1.64,1.64,0,1,1,3.28,0v10.7c0,5-3,8-7.93,8s-7.89-3-7.89-8Z"/><path class="cls-3" d="M202.43,284.27a6.72,6.72,0,0,1,5.49-2.65c4.2,0,7,3,7,7.57v11.1a1.65,1.65,0,1,1-3.29,0v-10.9c0-2.92-1.88-4.92-4.65-4.92s-4.6,2-4.6,4.92v10.9a1.65,1.65,0,1,1-3.29,0V283.38a1.65,1.65,0,1,1,3.29,0v.81Z"/><path class="cls-3" d="M232.35,274.61a1.64,1.64,0,1,1,3.28,0v25.68a1.64,1.64,0,1,1-3.28,0v-1h-.08c-1.09,1.92-2.69,2.76-5.21,2.76-5,0-8.61-4.25-8.61-10.21s3.6-10.22,8.45-10.22a6.4,6.4,0,0,1,5.37,2.73h.08Zm-10.62,17.23c0,4.48,2.16,7.37,5.49,7.37s5.45-2.93,5.45-7.33-2.17-7.41-5.49-7.41S221.73,287.39,221.73,291.84Z"/><path class="cls-3" d="M259.82,298.73a1.54,1.54,0,1,1,0,3.08h-8.57a1.62,1.62,0,0,1-1.77-1.8V276.62a1.65,1.65,0,1,1,3.29,0v22.11Z"/><path class="cls-3" d="M265.54,293.12a6.14,6.14,0,0,0,1.73,4.48,5.67,5.67,0,0,0,4.24,1.61,7.61,7.61,0,0,0,5.29-2c.76-.6,1.08-.76,1.44-.76a1.34,1.34,0,0,1,1.16,1.4c0,1.93-4.4,4.17-8.13,4.17-5.4,0-9-4.05-9-10.13s3.77-10.3,8.89-10.3c4.89,0,8.65,4.21,8.65,9.66,0,1.36-.48,1.84-1.84,1.84Zm11-2.49c-.16-3.88-2.2-6.16-5.53-6.16s-5.17,2.08-5.45,6.16Z"/><path class="cls-3" d="M286.57,300.29a1.64,1.64,0,1,1-3.28,0V274.61a1.64,1.64,0,1,1,3.28,0v9.74h.08a6.38,6.38,0,0,1,5.37-2.73c4.84,0,8.45,4.37,8.45,10.22s-3.61,10.21-8.61,10.21c-2.53,0-4.13-.84-5.21-2.76h-.08Zm-.32-8.49c0,4.52,2.12,7.41,5.49,7.41s5.44-2.93,5.44-7.37-2.16-7.37-5.48-7.37S286.25,287.39,286.25,291.8Z"/><path class="cls-3" d="M306.07,293.12a6.1,6.1,0,0,0,1.73,4.48,5.67,5.67,0,0,0,4.24,1.61,7.62,7.62,0,0,0,5.29-2c.76-.6,1.08-.76,1.44-.76a1.34,1.34,0,0,1,1.16,1.4c0,1.93-4.4,4.17-8.13,4.17-5.41,0-9-4.05-9-10.13s3.76-10.3,8.89-10.3c4.89,0,8.65,4.21,8.65,9.66,0,1.36-.48,1.84-1.84,1.84Zm11-2.49c-.16-3.88-2.2-6.16-5.53-6.16s-5.17,2.08-5.45,6.16Z"/><path class="cls-3" d="M326.86,284.27a6.72,6.72,0,0,1,5.49-2.65c4.2,0,7,3,7,7.57v11.1a1.65,1.65,0,1,1-3.29,0v-10.9c0-2.92-1.88-4.92-4.64-4.92s-4.61,2-4.61,4.92v10.9a1.65,1.65,0,1,1-3.29,0V283.38a1.65,1.65,0,1,1,3.29,0v.81Z"/></g></g></svg>