<svg xmlns="http://www.w3.org/2000/svg" viewBox="0 0 377.98 377.98"><defs><style>.cls-1{fill:#6eb52c;}.cls-2{fill:#fefffd;}</style></defs><title>Asset 28</title><g id="Layer_2" data-name="Layer 2"><g id="Capa_1" data-name="Capa 1"><rect class="cls-1" width="377.98" height="377.98"/><path class="cls-2" d="M261.46,200.38A19.8,19.8,0,0,0,243,192.44a19.78,19.78,0,0,0-19.67-9.83,19.56,19.56,0,0,0-34.14,0,19.78,19.78,0,0,0-19.66,9.83,19.71,19.71,0,0,0-21.23,25.93,4.92,4.92,0,0,0,4.56,3.4H259.5a4.92,4.92,0,0,0,4.68-3.4A19.84,19.84,0,0,0,261.46,200.38Z"/><path class="cls-2" d="M89.2,284.1a6.06,6.06,0,0,1,4,2.06,6.51,6.51,0,0,1,1.7,4.51c0,4.56-3.52,7.68-8.63,7.68H80a1.59,1.59,0,0,1-1.74-1.78V273.73A1.6,1.6,0,0,1,80,271.94h5.74c4.12,0,7.13,2.7,7.13,6.42A5.66,5.66,0,0,1,89.2,284Zm-7.68-1h3.72a4.09,4.09,0,0,0,4.4-4.28c0-2.57-1.59-4.08-4.32-4.08h-3.8Zm0,12.43h4.59c3.25,0,5.54-2,5.54-4.91s-2.17-4.87-5.38-4.87H81.52Z"/><path class="cls-2" d="M97.12,281.6a7.32,7.32,0,0,1-.44-1.82,1.45,1.45,0,0,1,1.51-1.38,1.72,1.72,0,0,1,1.62,1.23l4.51,13.54h.08l4.44-13.54a1.6,1.6,0,0,1,1.54-1.23,1.46,1.46,0,0,1,1.51,1.38,6.08,6.08,0,0,1-.44,1.82l-8.24,23.56a1.71,1.71,0,0,1-1.58,1.19,1.42,1.42,0,0,1-1.5-1.38,5.38,5.38,0,0,1,.47-1.79l2.1-5.54Zm5.7-6.09a3,3,0,0,1-1.23.35,1.5,1.5,0,0,1-1.42-1.58c0-.55.43-1,1.3-1.35l4.24-1.74a3,3,0,0,1,1.27-.36,1.53,1.53,0,0,1,1.42,1.55c0,.59-.39,1-1.3,1.38Z"/><path class="cls-2" d="M125,279.66a1.58,1.58,0,0,1,1.66-1.26,1.46,1.46,0,0,1,1.55,1.5,3.09,3.09,0,0,1-.36,1.35l-5.66,15.92c-.4,1.11-.75,1.42-1.7,1.42s-1.31-.31-1.71-1.42L113,281.25l-.12-.32a3.83,3.83,0,0,1-.19-1,1.45,1.45,0,0,1,1.5-1.5,1.64,1.64,0,0,1,1.7,1.26l4.48,13.67h.08Z"/><path class="cls-2" d="M143.48,280a1.53,1.53,0,1,1,3.05,0v17a1.53,1.53,0,1,1-3.05,0v-1.35h-.08a6.25,6.25,0,0,1-5.46,3c-4.95,0-8.59-4.27-8.59-10.1S133,278.4,138,278.4c2.14,0,3.6.71,5.42,2.65h.08Zm-10.89,8.44c0,4.47,2.14,7.32,5.43,7.32s5.42-2.89,5.42-7.29-2.14-7.28-5.42-7.28S132.59,284.1,132.59,288.46Z"/><path class="cls-2" d="M154.13,281a6.69,6.69,0,0,1,5.43-2.61c4.15,0,6.89,3,6.89,7.48v11a1.63,1.63,0,1,1-3.25,0V286.08c0-2.89-1.86-4.87-4.59-4.87s-4.56,2-4.56,4.87v10.77a1.63,1.63,0,1,1-3.25,0V280.14a1.63,1.63,0,1,1,3.25,0v.79Z"/><path class="cls-2" d="M174.4,273.73a2,2,0,1,1-2-2A2,2,0,0,1,174.4,273.73ZM174,296.85a1.63,1.63,0,1,1-3.25,0V280.14a1.63,1.63,0,1,1,3.25,0Z"/><path class="cls-2" d="M180.38,289.76a6.09,6.09,0,0,0,1.7,4.44,5.65,5.65,0,0,0,4.2,1.58,7.54,7.54,0,0,0,5.23-1.94c.75-.59,1.07-.75,1.42-.75a1.31,1.31,0,0,1,1.15,1.38c0,1.9-4.35,4.12-8,4.12-5.34,0-8.91-4-8.91-10s3.73-10.17,8.79-10.17c4.84,0,8.56,4.16,8.56,9.54,0,1.35-.48,1.82-1.82,1.82Zm10.85-2.45c-.16-3.84-2.18-6.1-5.46-6.1s-5.11,2.06-5.39,6.1Z"/><path class="cls-2" d="M220.17,280a1.53,1.53,0,1,1,3.05,0v17a1.53,1.53,0,1,1-3.05,0v-1.35h-.08a6.24,6.24,0,0,1-5.46,3c-4.95,0-8.59-4.27-8.59-10.1s3.64-10.09,8.63-10.09c2.14,0,3.6.71,5.42,2.65h.08Zm-10.89,8.44c0,4.47,2.14,7.32,5.43,7.32s5.42-2.89,5.42-7.29-2.14-7.28-5.42-7.28S209.28,284.1,209.28,288.46Z"/><path class="cls-2" d="M248.72,295.54c1,0,1.62.52,1.62,1.43s-.59,1.38-1.62,1.38H237c-1,0-1.58-.39-1.58-1.18a2.8,2.8,0,0,1,.67-1.63l9.42-14.09h-8.08c-1.06,0-1.66-.52-1.66-1.39s.6-1.43,1.66-1.43h11c1,0,1.59.44,1.59,1.19a3.06,3.06,0,0,1-.68,1.63l-9.54,14,.12.08ZM238.07,273.8a1.26,1.26,0,0,1-.83-1.26,1.33,1.33,0,0,1,1.3-1.43,2.14,2.14,0,0,1,.83.16l3.49,1.39,3.48-1.39a2.22,2.22,0,0,1,.84-.16,1.33,1.33,0,0,1,1.3,1.43,1.28,1.28,0,0,1-.83,1.26l-4.79,2.06Z"/><path class="cls-2" d="M256.87,273.73a2,2,0,1,1-2-2A2,2,0,0,1,256.87,273.73Zm-.39,23.12a1.63,1.63,0,1,1-3.25,0V280.14a1.63,1.63,0,1,1,3.25,0Z"/><path class="cls-2" d="M271.17,279.66a1.57,1.57,0,0,1,1.66-1.26,1.46,1.46,0,0,1,1.54,1.5,3,3,0,0,1-.35,1.35l-5.66,15.92c-.4,1.11-.76,1.42-1.71,1.42s-1.3-.31-1.7-1.42l-5.7-15.92-.12-.32a3.52,3.52,0,0,1-.2-1,1.46,1.46,0,0,1,1.51-1.5,1.65,1.65,0,0,1,1.7,1.26l4.47,13.67h.08Z"/><path class="cls-2" d="M292.91,288.49c0,5.87-3.65,10.1-8.68,10.1s-8.67-4.23-8.67-10,3.61-10.17,8.67-10.17S292.91,282.63,292.91,288.49Zm-14.1,0c0,4.47,2.14,7.32,5.42,7.32s5.43-2.89,5.43-7.29-2.14-7.28-5.43-7.28S278.81,284.1,278.81,288.46Z"/><path class="cls-2" d="M297.1,274.36a1.63,1.63,0,1,1,3.25,0v4.27h1.34c1,0,1.63.52,1.63,1.43s-.6,1.39-1.63,1.39h-1.34v15.4a1.63,1.63,0,1,1-3.25,0v-15.4h-1.35c-1,0-1.62-.52-1.62-1.39s.59-1.43,1.62-1.43h1.35Z"/><path class="cls-2" d="M260.34,93.39H212.81V163a29.75,29.75,0,0,1,15.47,9.17A29.82,29.82,0,0,1,247.91,182a30.28,30.28,0,0,1,17.34,7.44v-96Zm-4.92,59H222.64v-9.83h32.78Zm0-19.67H222.64v-9.83h32.78Zm0-19.66H222.64v-9.84h32.78Z"/><path class="cls-2" d="M114.44,71V221.77h24.61c0-.14-.13-.23-.16-.37a29.59,29.59,0,0,1,1.62-22.58H134.1V179.16h9.84v14.5a31.3,31.3,0,0,1,9.83-8v-6.45h9.83v3.5c.32,0,.64-.1,1-.13,2.53-2.82,8.21-9.5,18.72-8.75A29.69,29.69,0,0,1,202.93,163V71Zm29.5,98.33H134.1V149.66h9.84Zm0-29.49H134.1V120.16h9.84Zm0-29.5H134.1V93.94h9.84Zm19.66,59h-9.83V149.66h9.83Zm0-29.49h-9.83V120.16h9.83Zm0-29.5h-9.83V93.94h9.83Zm19.63,59h-9.84V149.66h9.84Zm0-29.49h-9.83V120.16h9.83Zm0-29.5h-9.83V93.94h9.83Z"/></g></g></svg>