<svg xmlns="http://www.w3.org/2000/svg" viewBox="0 0 377.98 377.98"><defs><style>.cls-1{fill:#6eb52c;}.cls-2,.cls-3{fill:#fefffd;}.cls-3{font-size:39.59px;font-family:VAGRundschriftD-Lig, VAG Rundschrift D;}.cls-4{letter-spacing:-0.01em;}.cls-5{letter-spacing:0em;}.cls-6{letter-spacing:0em;}.cls-7{letter-spacing:-0.01em;}</style></defs><title>Asset 24</title><g id="Layer_2" data-name="Layer 2"><g id="Capa_1" data-name="Capa 1"><rect class="cls-1" width="377.98" height="377.98"/><path class="cls-2" d="M261.46,200.38A19.8,19.8,0,0,0,243,192.44a19.78,19.78,0,0,0-19.67-9.83,19.56,19.56,0,0,0-34.14,0,19.78,19.78,0,0,0-19.66,9.83,19.71,19.71,0,0,0-21.23,25.93,4.92,4.92,0,0,0,4.56,3.4H259.5a4.92,4.92,0,0,0,4.68-3.4A19.84,19.84,0,0,0,261.46,200.38Z"/><text class="cls-3" transform="translate(76.13 298.35)">Bý<tspan class="cls-4" x="36.39" y="0">v</tspan><tspan class="cls-5" x="51.91" y="0">anie a ž</tspan><tspan class="cls-6" x="174.96" y="0">i</tspan><tspan class="cls-4" x="182.6" y="0">v</tspan><tspan class="cls-7" x="198.12" y="0">o</tspan><tspan x="217.76" y="0">t</tspan></text><path class="cls-2" d="M260.34,93.39H212.81V163a29.75,29.75,0,0,1,15.47,9.17A29.82,29.82,0,0,1,247.91,182a30.28,30.28,0,0,1,17.34,7.44v-96Zm-4.92,59H222.64v-9.83h32.78Zm0-19.67H222.64v-9.83h32.78Zm0-19.66H222.64v-9.84h32.78Z"/><path class="cls-2" d="M114.44,71V221.77h24.61c0-.14-.13-.23-.16-.37a29.59,29.59,0,0,1,1.62-22.58H134.1V179.16h9.84v14.5a31.3,31.3,0,0,1,9.83-8v-6.45h9.83v3.5c.32,0,.64-.1,1-.13,2.53-2.82,8.21-9.5,18.72-8.75A29.69,29.69,0,0,1,202.93,163V71Zm29.5,98.33H134.1V149.66h9.84Zm0-29.49H134.1V120.16h9.84Zm0-29.5H134.1V93.94h9.84Zm19.66,59h-9.83V149.66h9.83Zm0-29.49h-9.83V120.16h9.83Zm0-29.5h-9.83V93.94h9.83Zm19.63,59h-9.84V149.66h9.84Zm0-29.49h-9.83V120.16h9.83Zm0-29.5h-9.83V93.94h9.83Z"/></g></g></svg>