<svg xmlns="http://www.w3.org/2000/svg" viewBox="0 0 377.98 377.98"><defs><style>.cls-1{fill:#6eb52c;}.cls-2{fill:#fefffd;}</style></defs><title>Asset 3</title><g id="Layer_2" data-name="Layer 2"><g id="Capa_1" data-name="Capa 1"><rect class="cls-1" width="377.98" height="377.98"/><path class="cls-2" d="M327.45,293.36A38.28,38.28,0,0,0,291.67,278a38.24,38.24,0,0,0-38-19,37.82,37.82,0,0,0-66,0,38.26,38.26,0,0,0-38,19,38.1,38.1,0,0,0-41,50.11,9.51,9.51,0,0,0,8.83,6.57c1,0,206.2,0,206.2,0a9.51,9.51,0,0,0,9-6.57A38.35,38.35,0,0,0,327.45,293.36Z"/><path class="cls-2" d="M325.2,87.62H233.34v134.5a57.44,57.44,0,0,1,29.9,17.74,57.66,57.66,0,0,1,37.95,19,58.51,58.51,0,0,1,33.51,14.38V97.12A9.49,9.49,0,0,0,325.2,87.62Zm-19,114H261.85a9.51,9.51,0,1,1,0-19h44.34a9.51,9.51,0,1,1,0,19Zm0-38H261.85a9.5,9.5,0,1,1,0-19h44.34a9.5,9.5,0,1,1,0,19Zm0-38H261.85a9.5,9.5,0,1,1,0-19h44.34a9.5,9.5,0,1,1,0,19Z"/><path class="cls-2" d="M204.83,43.27h-152a9.49,9.49,0,0,0-9.5,9.51V325.19a9.49,9.49,0,0,0,9.5,9.51H90.86c-.07-.26-.26-.45-.32-.7A57.16,57.16,0,0,1,94,289.78a10.63,10.63,0,0,1-3.17.57,9.48,9.48,0,0,1-9.5-9.5v-19a9.51,9.51,0,0,1,19,0V280a56.55,56.55,0,0,1,19-15.2v-3a9.47,9.47,0,0,1,18.56-2.66c.76-.06,1.52-.25,2.28-.32a57.63,57.63,0,0,1,17.17-13.11V204.82a9.51,9.51,0,0,1,19,0v35.23l1.77-.19A57.31,57.31,0,0,1,214.33,221V52.78A9.49,9.49,0,0,0,204.83,43.27ZM100.3,223.83a9.51,9.51,0,0,1-19,0v-19a9.51,9.51,0,0,1,19,0Zm0-57a9.51,9.51,0,0,1-19,0v-19a9.51,9.51,0,1,1,19,0Zm0-57a9.51,9.51,0,1,1-19,0V97.12a9.51,9.51,0,0,1,19,0Zm38,122a9.51,9.51,0,0,1-19,0v-27a9.51,9.51,0,0,1,19,0v27Zm0-65a9.51,9.51,0,0,1-19,0v-19a9.51,9.51,0,1,1,19,0v19Zm0-57a9.51,9.51,0,1,1-19,0V97.12a9.51,9.51,0,0,1,19,0v12.67Zm38,57a9.51,9.51,0,0,1-19,0v-19a9.51,9.51,0,1,1,19,0v19Zm0-57a9.51,9.51,0,1,1-19,0V97.12a9.51,9.51,0,0,1,19,0v12.67Z"/></g></g></svg>