<svg xmlns="http://www.w3.org/2000/svg" viewBox="0 0 377.98 377.98"><defs><style>.cls-1{fill:#6eb52c;}.cls-2,.cls-3{fill:#fefffd;}.cls-3{font-size:39.59px;font-family:VAGRundschriftD-Lig, VAG Rundschrift D;}.cls-4{letter-spacing:-0.01em;}.cls-5{letter-spacing:0em;}.cls-6{letter-spacing:0em;}.cls-7{letter-spacing:-0.01em;}</style></defs><title>flats</title><g id="Layer_2" data-name="Layer 2"><g id="Capa_1" data-name="Capa 1"><rect class="cls-1" width="377.98" height="377.98"/><path class="cls-2" d="M260.63,199.67a19.81,19.81,0,0,0-18.51-7.94,19.8,19.8,0,0,0-19.67-9.83,19.56,19.56,0,0,0-34.14,0,19.79,19.79,0,0,0-19.67,9.83,19.72,19.72,0,0,0-21.23,25.93,4.93,4.93,0,0,0,4.57,3.4H258.67a4.92,4.92,0,0,0,4.67-3.4A19.87,19.87,0,0,0,260.63,199.67Z"/><path class="cls-2" d="M259.46,93.23H211.93v69.58A29.76,29.76,0,0,1,227.41,172,29.81,29.81,0,0,1,247,181.82a30.28,30.28,0,0,1,17.34,7.44V98.14A4.91,4.91,0,0,0,259.46,93.23Zm-9.83,59H226.68a4.92,4.92,0,0,1,0-9.83h22.95a4.92,4.92,0,0,1,0,9.83Zm0-19.66H226.68a4.92,4.92,0,0,1,0-9.83h22.95a4.92,4.92,0,0,1,0,9.83Zm0-19.67H226.68a4.92,4.92,0,0,1,0-9.83h22.95a4.92,4.92,0,0,1,0,9.83Z"/><path class="cls-2" d="M197.18,70.28H118.52a4.92,4.92,0,0,0-4.92,4.92V216.14a4.92,4.92,0,0,0,4.92,4.92h19.7c0-.13-.13-.23-.17-.36a29.63,29.63,0,0,1,1.77-22.88,5.64,5.64,0,0,1-1.63.29,4.9,4.9,0,0,1-4.92-4.91v-9.84a4.92,4.92,0,0,1,9.83,0v9.41a29.44,29.44,0,0,1,9.83-7.87v-1.54a4.9,4.9,0,0,1,9.61-1.37c.39,0,.79-.13,1.18-.17A29.74,29.74,0,0,1,172.6,175V153.86a4.92,4.92,0,0,1,9.83,0v18.23l.92-.1a29.65,29.65,0,0,1,18.75-9.74v-87A4.92,4.92,0,0,0,197.18,70.28ZM143.1,163.7a4.92,4.92,0,0,1-9.83,0v-9.84a4.92,4.92,0,0,1,9.83,0Zm0-29.5a4.92,4.92,0,0,1-9.83,0v-9.84a4.92,4.92,0,0,1,9.83,0Zm0-29.5a4.92,4.92,0,0,1-9.83,0V98.14a4.92,4.92,0,0,1,9.83,0Zm19.67,63.13a4.92,4.92,0,0,1-9.83,0v-14a4.92,4.92,0,0,1,9.83,0v14Zm0-33.63a4.92,4.92,0,0,1-9.83,0v-9.84a4.92,4.92,0,0,1,9.83,0v9.84Zm0-29.5a4.92,4.92,0,0,1-9.83,0V98.14a4.92,4.92,0,0,1,9.83,0v6.56Zm19.66,29.5a4.92,4.92,0,0,1-9.83,0v-9.84a4.92,4.92,0,0,1,9.83,0v9.84Zm0-29.5a4.92,4.92,0,0,1-9.83,0V98.14a4.92,4.92,0,0,1,9.83,0v6.56Z"/><text class="cls-3" transform="translate(75.3 297.64)">Bý<tspan class="cls-4" x="36.39" y="0">v</tspan><tspan class="cls-5" x="51.91" y="0">anie a ž</tspan><tspan class="cls-6" x="174.96" y="0">i</tspan><tspan class="cls-4" x="182.6" y="0">v</tspan><tspan class="cls-7" x="198.12" y="0">o</tspan><tspan x="217.76" y="0">t</tspan></text></g></g></svg>