<svg xmlns="http://www.w3.org/2000/svg" viewBox="0 0 377.98 377.98"><defs><style>.cls-1{fill:#6eb52c;}.cls-2{fill:#fefffd;}</style></defs><title>Asset 27</title><g id="Layer_2" data-name="Layer 2"><g id="Capa_1" data-name="Capa 1"><rect class="cls-1" width="377.98" height="377.98"/><g id="_Group_" data-name="&lt;Group&gt;"><g id="_Group_2" data-name="&lt;Group&gt;"><path class="cls-2" d="M227.61,158.85V122.07l-51.49,36.78V122.07H163.25V92H150.37v30H137.5V70.58H111.75v51.49H98.88v98.69H279.1V122.07Zm-60.07,40.46H150.37V182.14h17.17Zm30,0H180.41V182.14h17.16Zm30,0H210.44V182.14h17.17Z"/></g></g><path class="cls-2" d="M38,295.84a1.62,1.62,0,1,1-3.24,0V272.71a1.6,1.6,0,0,1,1.74-1.78h6.45c5,0,8.56,3.45,8.56,8.28A8.2,8.2,0,0,1,43,287.48H38Zm0-11.17h4.83a5.27,5.27,0,0,0,5.43-5.46,5.19,5.19,0,0,0-5.58-5.47H38Z"/><path class="cls-2" d="M57.29,280.79c1.1-2.06,2.85-3.4,4.47-3.4a1.65,1.65,0,0,1,1.78,1.66c0,.95-.63,1.5-2,1.78-2.73.52-4.35,2.57-4.31,5.62v9.39a1.63,1.63,0,1,1-3.25,0V279.13a1.63,1.63,0,1,1,3.25,0v1.66Z"/><path class="cls-2" d="M69.52,272.71a2,2,0,1,1-2-2A2,2,0,0,1,69.52,272.71Zm-.4,23.13a1.62,1.62,0,1,1-3.24,0V279.13a1.62,1.62,0,1,1,3.24,0Z"/><path class="cls-2" d="M75.5,288.75a6.09,6.09,0,0,0,1.7,4.44,5.69,5.69,0,0,0,4.2,1.58,7.56,7.56,0,0,0,5.22-1.94c.76-.59,1.07-.75,1.43-.75a1.32,1.32,0,0,1,1.15,1.38c0,1.9-4.36,4.12-8,4.12-5.35,0-8.91-4-8.91-10S76,277.39,81,277.39c4.83,0,8.55,4.15,8.55,9.54,0,1.35-.47,1.82-1.82,1.82Zm10.85-2.45c-.16-3.85-2.18-6.1-5.47-6.1s-5.1,2.06-5.38,6.1Z"/><path class="cls-2" d="M96.05,279.8a5.57,5.57,0,0,1,4.91-2.41c2.37,0,4,1,5.46,3.36,1.74-2.41,3.41-3.36,6-3.36,4.2,0,6.93,2.93,6.93,7.48v11a1.63,1.63,0,1,1-3.25,0v-11c0-2.85-1.58-4.59-4.23-4.59s-4.2,1.74-4.2,4.59v11a1.63,1.63,0,1,1-3.25,0v-11c0-2.85-1.58-4.59-4.23-4.59s-4.2,1.74-4.2,4.59v11a1.63,1.63,0,1,1-3.25,0V279.13a1.63,1.63,0,1,1,3.25,0v.59Z"/><path class="cls-2" d="M122.1,280.59a7.32,7.32,0,0,1-.44-1.82,1.46,1.46,0,0,1,1.51-1.38,1.72,1.72,0,0,1,1.62,1.22l4.52,13.55h.07l4.44-13.55a1.61,1.61,0,0,1,1.54-1.22,1.45,1.45,0,0,1,1.51,1.38,6.08,6.08,0,0,1-.44,1.82l-8.23,23.56a1.72,1.72,0,0,1-1.59,1.19,1.42,1.42,0,0,1-1.5-1.38,5.66,5.66,0,0,1,.47-1.79l2.1-5.54Z"/><path class="cls-2" d="M152.23,280.91a1.33,1.33,0,0,1-1.43,1.31,2.52,2.52,0,0,1-1.58-.72,5.24,5.24,0,0,0-3.56-1.3c-2,0-3.45,1-3.45,2.41,0,1.27,1.19,2.14,4.28,3.25,4.43,1.58,6.26,3.25,6.26,5.82,0,3.45-3,5.9-7.25,5.9-3.76,0-7.37-1.86-7.37-3.8a1.39,1.39,0,0,1,1.35-1.43,3.29,3.29,0,0,1,1.7.84,7.15,7.15,0,0,0,4.44,1.58c2.18,0,3.84-1.19,3.84-2.69,0-1.35-1.27-2.38-4.55-3.65-4.28-1.66-5.94-3.2-5.94-5.5,0-3.17,2.85-5.54,6.65-5.54C148.94,277.39,152.23,279.13,152.23,280.91Z"/><path class="cls-2" d="M157.89,288.75a6.09,6.09,0,0,0,1.7,4.44,5.69,5.69,0,0,0,4.2,1.58,7.59,7.59,0,0,0,5.23-1.94c.75-.59,1.07-.75,1.42-.75a1.31,1.31,0,0,1,1.15,1.38c0,1.9-4.35,4.12-8,4.12-5.34,0-8.91-4-8.91-10s3.73-10.17,8.79-10.17c4.84,0,8.56,4.15,8.56,9.54,0,1.35-.48,1.82-1.82,1.82Zm10.85-2.45c-.16-3.85-2.18-6.1-5.46-6.1s-5.11,2.06-5.39,6.1Z"/><path class="cls-2" d="M178.6,295.84a1.63,1.63,0,1,1-3.25,0V270.46a1.63,1.63,0,1,1,3.25,0Z"/><path class="cls-2" d="M205.48,279a1.53,1.53,0,1,1,3.05,0V296a1.53,1.53,0,1,1-3.05,0v-1.35h-.08a6.24,6.24,0,0,1-5.46,3c-4.95,0-8.59-4.28-8.59-10.1S195,277.39,200,277.39c2.14,0,3.6.71,5.42,2.65h.08Zm-10.89,8.43c0,4.48,2.14,7.33,5.43,7.33s5.42-2.89,5.42-7.29-2.14-7.28-5.42-7.28S194.59,283.09,194.59,287.44Z"/><path class="cls-2" d="M225.4,280.79c1.11-2.06,2.85-3.4,4.47-3.4a1.65,1.65,0,0,1,1.78,1.66c0,.95-.63,1.5-2,1.78-2.73.52-4.35,2.57-4.31,5.62v9.39a1.63,1.63,0,1,1-3.25,0V279.13a1.63,1.63,0,1,1,3.25,0v1.66Z"/><path class="cls-2" d="M235.34,288.75a6,6,0,0,0,1.7,4.44,5.67,5.67,0,0,0,4.2,1.58,7.58,7.58,0,0,0,5.22-1.94c.75-.59,1.07-.75,1.43-.75a1.32,1.32,0,0,1,1.15,1.38c0,1.9-4.36,4.12-8,4.12-5.35,0-8.91-4-8.91-10s3.72-10.17,8.79-10.17c4.83,0,8.55,4.15,8.55,9.54,0,1.35-.47,1.82-1.82,1.82Zm10.84-2.45c-.15-3.85-2.17-6.1-5.46-6.1s-5.11,2.06-5.38,6.1Z"/><path class="cls-2" d="M255.88,279.8a5.59,5.59,0,0,1,4.91-2.41c2.38,0,4,1,5.47,3.36,1.74-2.41,3.4-3.36,6-3.36,4.2,0,6.93,2.93,6.93,7.48v11a1.63,1.63,0,1,1-3.25,0v-11c0-2.85-1.58-4.59-4.24-4.59s-4.19,1.74-4.19,4.59v11a1.63,1.63,0,1,1-3.25,0v-11c0-2.85-1.58-4.59-4.24-4.59s-4.19,1.74-4.19,4.59v11a1.63,1.63,0,1,1-3.25,0V279.13a1.63,1.63,0,1,1,3.25,0v.59Z"/><path class="cls-2" d="M285.54,288.75a6.09,6.09,0,0,0,1.7,4.44,5.69,5.69,0,0,0,4.2,1.58,7.6,7.6,0,0,0,5.23-1.94c.75-.59,1.07-.75,1.42-.75a1.31,1.31,0,0,1,1.15,1.38c0,1.9-4.36,4.12-8,4.12-5.34,0-8.91-4-8.91-10s3.72-10.17,8.79-10.17c4.83,0,8.56,4.15,8.56,9.54,0,1.35-.48,1.82-1.83,1.82Zm10.85-2.45c-.16-3.85-2.18-6.1-5.47-6.1s-5.1,2.06-5.38,6.1Z"/><path class="cls-2" d="M315.75,280.91a1.33,1.33,0,0,1-1.43,1.31,2.52,2.52,0,0,1-1.58-.72,5.24,5.24,0,0,0-3.56-1.3c-2,0-3.45,1-3.45,2.41,0,1.27,1.19,2.14,4.28,3.25,4.43,1.58,6.25,3.25,6.25,5.82,0,3.45-3,5.9-7.24,5.9-3.76,0-7.37-1.86-7.37-3.8a1.39,1.39,0,0,1,1.35-1.43,3.29,3.29,0,0,1,1.7.84,7.15,7.15,0,0,0,4.44,1.58c2.17,0,3.84-1.19,3.84-2.69,0-1.35-1.27-2.38-4.56-3.65-4.27-1.66-5.94-3.2-5.94-5.5,0-3.17,2.86-5.54,6.66-5.54C312.46,277.39,315.75,279.13,315.75,280.91Z"/><path class="cls-2" d="M322.6,295.84a1.63,1.63,0,1,1-3.25,0V270.46a1.63,1.63,0,1,1,3.25,0Z"/><path class="cls-2" d="M340.22,279a1.51,1.51,0,0,1,1.5-1.62,1.52,1.52,0,0,1,1.55,1.62V296a1.52,1.52,0,0,1-1.55,1.62,1.51,1.51,0,0,1-1.5-1.62v-1.35h-.08a6.27,6.27,0,0,1-5.47,3c-4.95,0-8.59-4.28-8.59-10.1s3.64-10.09,8.63-10.09c2.14,0,3.61.71,5.43,2.65h.08Zm-10.89,8.43c0,4.48,2.14,7.33,5.42,7.33s5.43-2.89,5.43-7.29-2.14-7.28-5.43-7.28S329.33,283.09,329.33,287.44Zm4.31-12.94a2.57,2.57,0,0,1-1.22.35,1.51,1.51,0,0,1-1.43-1.58c0-.56.44-1,1.27-1.35l4.27-1.74a3,3,0,0,1,1.23-.36,1.54,1.54,0,0,1,1.43,1.55c0,.59-.44,1-1.27,1.38Z"/></g></g></svg>