<svg xmlns="http://www.w3.org/2000/svg" viewBox="0 0 377.98 377.98"><defs><style>.cls-1{fill:#6eb52c;}.cls-2{fill:#fefffd;}.cls-3{fill:#fff;}</style></defs><title>Asset 34</title><g id="Layer_2" data-name="Layer 2"><g id="Capa_1" data-name="Capa 1"><rect class="cls-1" width="377.98" height="377.98"/><g id="_Group_" data-name="&lt;Group&gt;"><g id="_Group_2" data-name="&lt;Group&gt;"><path class="cls-2" d="M227.61,158.85V122.07l-51.49,36.78V122.07H163.25V92H150.37v30H137.5V70.58H111.75v51.49H98.88v98.69H279.1V122.07Zm-60.07,40.46H150.37V182.14h17.17Zm30,0H180.41V182.14h17.16Zm30,0H210.44V182.14h17.17Z"/></g></g><path class="cls-3" d="M122.31,275.55a1.64,1.64,0,1,1-3.28,0V251.87a1.64,1.64,0,1,1,3.28,0Z"/><path class="cls-3" d="M130,259.52a6.74,6.74,0,0,1,5.49-2.64c4.2,0,7,3,7,7.57v11.1a1.65,1.65,0,1,1-3.29,0v-10.9c0-2.92-1.88-4.92-4.64-4.92s-4.61,2-4.61,4.92v10.9a1.64,1.64,0,1,1-3.28,0V258.64a1.64,1.64,0,1,1,3.28,0v.8Z"/><path class="cls-3" d="M160,249.87a1.64,1.64,0,1,1,3.28,0v25.68a1.64,1.64,0,1,1-3.28,0v-1h-.08c-1.08,1.92-2.69,2.76-5.21,2.76-5,0-8.61-4.25-8.61-10.21s3.6-10.22,8.45-10.22a6.39,6.39,0,0,1,5.37,2.73H160ZM149.34,267.1c0,4.48,2.17,7.37,5.49,7.37s5.45-2.93,5.45-7.33-2.16-7.41-5.49-7.41S149.34,262.65,149.34,267.1Z"/><path class="cls-3" d="M167.73,258.64a1.64,1.64,0,1,1,3.28,0v10.58c0,3.48,1.56,5.25,4.61,5.25s4.64-1.77,4.64-5.25V258.64a1.65,1.65,0,1,1,3.29,0v10.7c0,5-3,8-7.93,8s-7.89-3-7.89-8Z"/><path class="cls-3" d="M200.93,260.45a1.34,1.34,0,0,1-1.44,1.32,2.58,2.58,0,0,1-1.61-.72,5.3,5.3,0,0,0-3.6-1.32c-2,0-3.49,1-3.49,2.44,0,1.28,1.21,2.16,4.33,3.28,4.49,1.61,6.33,3.29,6.33,5.89,0,3.49-3,6-7.33,6-3.81,0-7.45-1.88-7.45-3.85A1.39,1.39,0,0,1,188,272a3.37,3.37,0,0,1,1.72.84,7.2,7.2,0,0,0,4.49,1.61c2.2,0,3.88-1.21,3.88-2.73,0-1.36-1.28-2.4-4.6-3.68-4.33-1.69-6-3.25-6-5.57,0-3.21,2.88-5.61,6.73-5.61C197.6,256.88,200.93,258.64,200.93,260.45Z"/><path class="cls-3" d="M205.93,252.8a1.65,1.65,0,1,1,3.29,0v4.32h1.36c1,0,1.64.52,1.64,1.44s-.6,1.41-1.64,1.41h-1.36v15.58a1.65,1.65,0,1,1-3.29,0V260h-1.36c-1,0-1.64-.53-1.64-1.41s.6-1.44,1.64-1.44h1.36Z"/><path class="cls-3" d="M218.07,260.33c1.12-2.09,2.88-3.45,4.52-3.45a1.67,1.67,0,0,1,1.8,1.68c0,1-.64,1.53-2,1.81-2.76.52-4.4,2.6-4.36,5.68v9.5a1.65,1.65,0,1,1-3.29,0V258.64a1.65,1.65,0,1,1,3.29,0v1.69Z"/><path class="cls-3" d="M230.44,252.15a2,2,0,1,1-2-2A2,2,0,0,1,230.44,252.15Zm-.4,23.4a1.64,1.64,0,1,1-3.28,0V258.64a1.64,1.64,0,1,1,3.28,0Z"/><path class="cls-3" d="M236.49,268.38a6.14,6.14,0,0,0,1.72,4.48,5.71,5.71,0,0,0,4.25,1.61,7.65,7.65,0,0,0,5.28-2c.76-.6,1.08-.76,1.44-.76a1.34,1.34,0,0,1,1.17,1.4c0,1.93-4.41,4.17-8.13,4.17-5.41,0-9-4.05-9-10.13s3.77-10.3,8.9-10.3c4.88,0,8.65,4.21,8.65,9.65,0,1.37-.48,1.85-1.85,1.85Zm11-2.49c-.16-3.88-2.2-6.16-5.52-6.16s-5.17,2.08-5.45,6.16Z"/><path class="cls-3" d="M73.83,306.7a1.65,1.65,0,1,1,3.29,0v10.58c0,3.48,1.56,5.24,4.6,5.24s4.65-1.76,4.65-5.24V306.7a1.64,1.64,0,1,1,3.28,0v10.7c0,5-3,8-7.93,8s-7.89-3-7.89-8Z"/><path class="cls-3" d="M97.38,307.58a6.76,6.76,0,0,1,5.49-2.64c4.2,0,7,3,7,7.57v11.1a1.65,1.65,0,1,1-3.29,0v-10.9c0-2.92-1.88-4.93-4.64-4.93s-4.61,2-4.61,4.93v10.9a1.64,1.64,0,1,1-3.28,0V306.7a1.64,1.64,0,1,1,3.28,0v.8Z"/><path class="cls-3" d="M127.3,297.93a1.64,1.64,0,1,1,3.28,0v25.68a1.64,1.64,0,1,1-3.28,0v-1h-.08c-1.08,1.93-2.69,2.77-5.21,2.77-5,0-8.61-4.25-8.61-10.22s3.6-10.21,8.45-10.21a6.4,6.4,0,0,1,5.37,2.72h.08Zm-10.62,17.22c0,4.49,2.17,7.37,5.49,7.37s5.45-2.92,5.45-7.33-2.16-7.41-5.49-7.41S116.68,310.71,116.68,315.15Z"/><path class="cls-3" d="M147.72,323.36c0,1.29-.6,2-1.64,2s-1.64-.72-1.64-2V300.17c0-1.28.6-2,1.64-2s1.64.72,1.64,2v10.14h14.1V300.17c0-1.28.6-2,1.64-2s1.65.72,1.65,2v23.19c0,1.29-.61,2-1.65,2s-1.64-.72-1.64-2V313.15h-14.1Z"/><path class="cls-3" d="M183.13,306.58a1.54,1.54,0,1,1,3.08,0v17.15a1.54,1.54,0,1,1-3.08,0v-1.37h-.08a6.34,6.34,0,0,1-5.53,3c-5,0-8.69-4.33-8.69-10.22s3.68-10.21,8.73-10.21c2.16,0,3.64.72,5.49,2.68h.08Zm-11,8.53c0,4.53,2.16,7.41,5.49,7.41s5.49-2.92,5.49-7.37-2.17-7.37-5.49-7.37S172.11,310.71,172.11,315.11Z"/><path class="cls-3" d="M193.9,307.58a6.74,6.74,0,0,1,5.48-2.64c4.21,0,7,3,7,7.57v11.1a1.64,1.64,0,1,1-3.28,0v-10.9c0-2.92-1.88-4.93-4.65-4.93s-4.6,2-4.6,4.93v10.9a1.65,1.65,0,1,1-3.29,0V306.7a1.65,1.65,0,1,1,3.29,0v.8Z"/><path class="cls-3" d="M223.82,297.93a1.64,1.64,0,1,1,3.28,0v25.68a1.64,1.64,0,1,1-3.28,0v-1h-.08c-1.09,1.93-2.69,2.77-5.21,2.77-5,0-8.61-4.25-8.61-10.22s3.6-10.21,8.45-10.21a6.42,6.42,0,0,1,5.37,2.72h.08ZM213.2,315.15c0,4.49,2.16,7.37,5.49,7.37s5.45-2.92,5.45-7.33-2.17-7.41-5.49-7.41S213.2,310.71,213.2,315.15Z"/><path class="cls-3" d="M239.15,323.65c-.4,1.2-1,1.72-1.88,1.72s-1.48-.48-1.92-1.72L229.9,307.7a4.65,4.65,0,0,1-.28-1.28,1.46,1.46,0,0,1,1.6-1.48c.88,0,1.44.52,1.8,1.72l4.25,13.58h.08l4.17-13.1c.56-1.84.92-2.2,1.92-2.2s1.4.4,2,2.2l4.17,13.1h.08l4.24-13.58c.36-1.2.92-1.72,1.8-1.72a1.47,1.47,0,0,1,1.61,1.48,5.88,5.88,0,0,1-.24,1.28l-5.49,15.95c-.44,1.24-1,1.72-1.92,1.72s-1.49-.52-1.89-1.72l-4.28-13.5h0Z"/><path class="cls-3" d="M261.62,316.44a6.14,6.14,0,0,0,1.72,4.48,5.71,5.71,0,0,0,4.25,1.6,7.64,7.64,0,0,0,5.28-2c.76-.6,1.09-.76,1.45-.76a1.34,1.34,0,0,1,1.16,1.4c0,1.92-4.41,4.17-8.13,4.17-5.41,0-9-4.05-9-10.14s3.77-10.29,8.9-10.29c4.88,0,8.65,4.21,8.65,9.65,0,1.36-.48,1.85-1.84,1.85Zm11-2.49c-.16-3.88-2.2-6.17-5.52-6.17s-5.17,2.09-5.45,6.17Z"/><path class="cls-3" d="M282.4,308.38c1.13-2.08,2.89-3.44,4.53-3.44a1.67,1.67,0,0,1,1.8,1.68c0,1-.64,1.52-2,1.8-2.76.53-4.41,2.61-4.37,5.69v9.5a1.64,1.64,0,1,1-3.28,0V306.7a1.64,1.64,0,1,1,3.28,0v1.68Z"/><path class="cls-3" d="M294.38,323.61a1.65,1.65,0,1,1-3.29,0V297.93a1.65,1.65,0,1,1,3.29,0V312l7.21-6c.92-.8,1.32-1,1.88-1a1.36,1.36,0,0,1,1.36,1.48,1.68,1.68,0,0,1-.8,1.4l-7.53,5.93,8.73,8.61A2.17,2.17,0,0,1,306,324a1.35,1.35,0,0,1-1.44,1.4c-.68,0-1.08-.24-1.84-1l-8.33-8.7Z"/></g></g></svg>