<svg xmlns="http://www.w3.org/2000/svg" viewBox="0 0 377.98 377.98"><defs><style>.cls-1{fill:#6eb52c;}.cls-2{fill:#fefffd;}</style></defs><title>Asset 1</title><g id="Layer_2" data-name="Layer 2"><g id="Capa_1" data-name="Capa 1"><rect class="cls-1" width="377.98" height="377.98"/><polygon class="cls-2" points="202.75 197.38 198.54 211.4 206.77 211.4 202.75 197.38"/><polygon class="cls-2" points="99.46 74.67 99.46 100.02 133.62 104.29 195.55 86.68 99.46 74.67"/><polygon class="cls-2" points="176.43 109.64 281.01 122.71 281.01 83.05 176.43 109.64"/><path class="cls-2" d="M99.46,117.41V254.58H320.31V145Zm80.66,111.14H167.7V204.71l-7.59,16.76h-6.63l-7.58-16.76v23.84H133.47V183.29h13.58l9.75,21.29,9.81-21.29h13.51v45.26Zm31.36,0-2.74-8.86h-12L194,228.55H181.34l15.74-45.26h11.34l15.68,45.26Zm46.78,0H225.31V183.29h12.43v34.42h20.52Zm33.47,0h-33V183.29H271.2v34.42h20.53Z"/><polygon class="cls-2" points="57.67 112.18 57.67 254.58 82.21 254.58 82.21 115.25 57.67 112.18"/><rect class="cls-2" x="41.76" y="271.84" width="294.47" height="31.48"/></g></g></svg>