<svg xmlns="http://www.w3.org/2000/svg" viewBox="0 0 377.98 377.98"><defs><style>.cls-1{fill:#6eb52c;}.cls-2,.cls-3{fill:#fefffd;}.cls-3{font-size:39.59px;font-family:VAGRundschriftD-Lig, VAG Rundschrift D;}.cls-4{letter-spacing:-0.01em;}.cls-5{letter-spacing:-0.01em;}</style></defs><title>shopping</title><g id="Layer_2" data-name="Layer 2"><g id="Capa_1" data-name="Capa 1"><rect class="cls-1" width="377.98" height="377.98"/><polygon class="cls-2" points="198 151.16 195.24 160.34 200.62 160.34 198 151.16"/><polygon class="cls-2" points="130.41 70.87 130.41 87.46 152.76 90.25 193.28 78.73 130.41 70.87"/><polygon class="cls-2" points="180.77 93.75 249.2 102.31 249.2 76.35 180.77 93.75"/><path class="cls-2" d="M130.41,98.83v89.76H274.92V116.9Zm52.78,72.72h-8.13V156l-5,11h-4.34l-5-11v15.59h-8.14V141.94h8.89l6.38,13.93,6.42-13.93h8.84v29.61Zm20.52,0-1.8-5.79H194l-1.75,5.79H184l10.3-29.61h7.43L212,171.55Zm30.61,0H212.76V141.94h8.13v22.52h13.43Zm21.89,0H234.65V141.94h8.13v22.52h13.43Z"/><polygon class="cls-2" points="103.07 95.42 103.07 188.59 119.12 188.59 119.12 97.42 103.07 95.42"/><rect class="cls-2" x="92.65" y="199.88" width="192.67" height="20.6"/><text class="cls-3" transform="translate(59.5 297.06)">Ob<tspan class="cls-4" x="46.05" y="0">c</tspan><tspan x="62.28" y="0">hod a služ</tspan><tspan class="cls-5" x="222.43" y="0">b</tspan><tspan x="242.51" y="0">y</tspan></text></g></g></svg>