<svg xmlns="http://www.w3.org/2000/svg" viewBox="0 0 377.98 377.98"><defs><style>.cls-1{fill:#6eb52c;}.cls-2{fill:#fefffd;}</style></defs><title>Asset 26</title><g id="Layer_2" data-name="Layer 2"><g id="Capa_1" data-name="Capa 1"><rect class="cls-1" width="377.98" height="377.98"/><polygon class="cls-2" points="130.41 70.87 130.41 87.46 152.76 90.25 193.28 78.73 130.41 70.87"/><polygon class="cls-2" points="180.77 93.75 249.2 102.31 249.2 76.35 180.77 93.75"/><polygon class="cls-2" points="103.07 95.42 103.07 188.59 119.12 188.59 119.12 97.42 103.07 95.42"/><rect class="cls-2" x="92.65" y="199.88" width="192.67" height="20.6"/><path class="cls-2" d="M83.77,283.83c0,7.84-4.83,13.46-11.56,13.46S60.65,291.67,60.65,284c0-7.92,4.79-13.54,11.56-13.54S83.77,276,83.77,283.83Zm-19.64,0c0,6.57,3.13,10.69,8.08,10.69s8.08-4.16,8.08-10.65-3.17-10.61-8.08-10.61S64.13,277.38,64.13,283.79Z"/><path class="cls-2" d="M90.46,295.55a1.62,1.62,0,1,1-3.24,0V270.17a1.62,1.62,0,1,1,3.24,0v9.62h.08a6.33,6.33,0,0,1,5.31-2.69c4.79,0,8.35,4.32,8.35,10.1s-3.56,10.09-8.51,10.09c-2.49,0-4.08-.83-5.15-2.73h-.08Zm-.31-8.39c0,4.47,2.1,7.32,5.42,7.32s5.39-2.89,5.39-7.28-2.14-7.29-5.43-7.29S90.15,282.8,90.15,287.16Z"/><path class="cls-2" d="M121.07,279.59a1.4,1.4,0,0,1-1.39,1.39,3,3,0,0,1-1.34-.44,5.48,5.48,0,0,0-2.54-.63c-3.4,0-5.7,2.93-5.7,7.29s2.3,7.28,5.7,7.28a5.13,5.13,0,0,0,2.7-.75,2.35,2.35,0,0,1,1.18-.4,1.24,1.24,0,0,1,1.27,1.31c0,1.51-2.22,2.65-5.11,2.65-5.38,0-9-4-9-10,0-6.18,3.56-10.18,9-10.18C118.85,277.1,121.07,278.17,121.07,279.59Z"/><path class="cls-2" d="M127.25,279.71a6.65,6.65,0,0,1,5.42-2.61c4.16,0,6.89,3,6.89,7.48v11a1.63,1.63,0,1,1-3.25,0V284.78c0-2.89-1.86-4.87-4.59-4.87s-4.55,2-4.55,4.87v10.77a1.63,1.63,0,1,1-3.25,0V270.17a1.63,1.63,0,1,1,3.25,0v9.46Z"/><path class="cls-2" d="M160.39,287.2c0,5.86-3.65,10.09-8.67,10.09s-8.68-4.23-8.68-10c0-5.94,3.61-10.18,8.68-10.18S160.39,281.34,160.39,287.2Zm-14.1,0c0,4.47,2.14,7.32,5.43,7.32s5.42-2.89,5.42-7.28-2.14-7.29-5.42-7.29S146.29,282.8,146.29,287.16Z"/><path class="cls-2" d="M176.78,270.17a1.63,1.63,0,1,1,3.25,0v25.38a1.63,1.63,0,1,1-3.25,0v-1h-.08c-1.07,1.9-2.65,2.73-5.15,2.73-5,0-8.51-4.19-8.51-10.09s3.56-10.1,8.35-10.1a6.33,6.33,0,0,1,5.31,2.69h.08Zm-10.49,17c0,4.43,2.13,7.28,5.42,7.28s5.38-2.89,5.38-7.24-2.13-7.33-5.42-7.33S166.29,282.8,166.29,287.2Z"/><path class="cls-2" d="M207,278.72a1.51,1.51,0,0,1,1.5-1.62,1.52,1.52,0,0,1,1.55,1.62v16.95a1.52,1.52,0,0,1-1.55,1.62,1.51,1.51,0,0,1-1.5-1.62v-1.35H207a6.27,6.27,0,0,1-5.47,3c-4.95,0-8.59-4.27-8.59-10.09s3.64-10.1,8.63-10.1c2.14,0,3.61.71,5.43,2.65H207Zm-10.89,8.44c0,4.47,2.14,7.32,5.42,7.32s5.43-2.89,5.43-7.28-2.14-7.29-5.43-7.29S196.14,282.8,196.14,287.16Z"/><path class="cls-2" d="M236.48,280.62a1.32,1.32,0,0,1-1.42,1.31,2.57,2.57,0,0,1-1.59-.71,5.22,5.22,0,0,0-3.56-1.31c-2,0-3.44,1-3.44,2.42,0,1.26,1.18,2.13,4.27,3.24,4.44,1.59,6.26,3.25,6.26,5.82,0,3.45-3,5.9-7.25,5.9-3.76,0-7.36-1.86-7.36-3.8a1.37,1.37,0,0,1,1.34-1.42,3.27,3.27,0,0,1,1.71.83,7.06,7.06,0,0,0,4.43,1.58c2.18,0,3.84-1.19,3.84-2.69s-1.26-2.38-4.55-3.64c-4.28-1.67-5.94-3.21-5.94-5.51,0-3.17,2.85-5.54,6.65-5.54C233.2,277.1,236.48,278.84,236.48,280.62Z"/><path class="cls-2" d="M243.33,295.55a1.62,1.62,0,1,1-3.24,0V270.17a1.62,1.62,0,1,1,3.24,0Z"/><path class="cls-2" d="M247.65,278.84a1.62,1.62,0,1,1,3.24,0V289.3c0,3.44,1.55,5.18,4.56,5.18s4.59-1.74,4.59-5.18V278.84a1.63,1.63,0,1,1,3.25,0v10.57c0,4.95-2.93,7.88-7.84,7.88s-7.8-2.93-7.8-7.88Z"/><path class="cls-2" d="M279.56,294.24c1,0,1.62.52,1.62,1.43s-.59,1.39-1.62,1.39H267.8c-1,0-1.58-.4-1.58-1.19a2.9,2.9,0,0,1,.67-1.63l9.42-14.09h-8.07c-1.07,0-1.67-.52-1.67-1.39s.6-1.42,1.67-1.42h11c1,0,1.59.43,1.59,1.18a3.08,3.08,0,0,1-.67,1.63l-9.55,14,.12.07Zm-10.65-21.73a1.3,1.3,0,0,1-.83-1.27,1.33,1.33,0,0,1,1.3-1.43,2.22,2.22,0,0,1,.84.16l3.48,1.39,3.49-1.39a2.14,2.14,0,0,1,.83-.16,1.33,1.33,0,0,1,1.3,1.43,1.29,1.29,0,0,1-.83,1.27l-4.79,2.06Z"/><path class="cls-2" d="M287.48,295.55a1.63,1.63,0,1,1-3.25,0V270.17a1.63,1.63,0,1,1,3.25,0v9.62h.08a6.32,6.32,0,0,1,5.3-2.69c4.79,0,8.36,4.32,8.36,10.1s-3.57,10.09-8.51,10.09c-2.5,0-4.08-.83-5.15-2.73h-.08Zm-.32-8.39c0,4.47,2.1,7.32,5.43,7.32s5.38-2.89,5.38-7.28-2.14-7.29-5.42-7.29S287.16,282.8,287.16,287.16Z"/><path class="cls-2" d="M303.08,280.31a7.42,7.42,0,0,1-.44-1.82,1.46,1.46,0,0,1,1.51-1.39,1.72,1.72,0,0,1,1.62,1.23l4.51,13.54h.08l4.44-13.54a1.61,1.61,0,0,1,1.54-1.23,1.46,1.46,0,0,1,1.51,1.39,6.15,6.15,0,0,1-.44,1.82l-8.23,23.56a1.74,1.74,0,0,1-1.59,1.18,1.42,1.42,0,0,1-1.5-1.38,5.62,5.62,0,0,1,.47-1.78l2.1-5.55Z"/><path class="cls-2" d="M130.41,98.83v89.76H274.92V116.9ZM168,137.09h17.17v17.16H168Zm-9,42.22H141.82V162.14H159Zm0-25.06H141.82V137.09H159Zm26.13,25.06H168V162.14h17.17Zm26.13,0H194.08V162.14h17.17Zm0-25.06H194.08V137.09h17.17Zm26.12,25.06H220.21V162.14h17.16Zm0-25.06H220.21V137.09h17.16Zm26.13,25.06H246.34V162.14H263.5Zm0-25.06H246.34V137.09H263.5Z"/></g></g></svg>