<svg xmlns="http://www.w3.org/2000/svg" viewBox="0 0 377.98 377.98"><defs><style>.cls-1{fill:#6eb52c;}.cls-2{fill:#fefffd;}.cls-3{fill:#fff;}</style></defs><title>Asset 33</title><g id="Layer_2" data-name="Layer 2"><g id="Capa_1" data-name="Capa 1"><rect class="cls-1" width="377.98" height="377.98"/><polygon class="cls-2" points="130.41 70.87 130.41 87.46 152.76 90.25 193.28 78.73 130.41 70.87"/><polygon class="cls-2" points="180.77 93.75 249.2 102.31 249.2 76.35 180.77 93.75"/><polygon class="cls-2" points="103.07 95.42 103.07 188.59 119.12 188.59 119.12 97.42 103.07 95.42"/><rect class="cls-2" x="92.65" y="199.88" width="192.67" height="20.6"/><path class="cls-2" d="M130.41,98.83v89.76H274.92V116.9ZM168,137.09h17.17v17.16H168Zm-9,42.22H141.82V162.14H159Zm0-25.06H141.82V137.09H159Zm26.13,25.06H168V162.14h17.17Zm26.13,0H194.08V162.14h17.17Zm0-25.06H194.08V137.09h17.17Zm26.12,25.06H220.21V162.14h17.16Zm0-25.06H220.21V137.09h17.16Zm26.13,25.06H246.34V162.14H263.5Zm0-25.06H246.34V137.09H263.5Z"/><path class="cls-3" d="M130.52,264.85a1.54,1.54,0,1,1,0-3.08h5.53c1.84,0,2.4.72,2.4,3,0,7.89-4,12.5-11,12.5a10.8,10.8,0,0,1-9.33-4.53,15.39,15.39,0,0,1-2.73-9.09c0-8.17,4.89-13.58,12.22-13.58,4.28,0,9.09,2.29,9.09,4.37a1.53,1.53,0,0,1-1.56,1.52,3.45,3.45,0,0,1-1.92-.92,8.91,8.91,0,0,0-5.85-2.12c-5.09,0-8.45,4.28-8.45,10.77s3.4,10.74,8.49,10.74a7.78,7.78,0,0,0,7.77-8.06v-1.56Z"/><path class="cls-3" d="M144,268.38a6.14,6.14,0,0,0,1.72,4.48,5.71,5.71,0,0,0,4.25,1.61,7.65,7.65,0,0,0,5.28-2c.76-.6,1.08-.76,1.44-.76a1.34,1.34,0,0,1,1.17,1.4c0,1.93-4.41,4.17-8.13,4.17-5.41,0-9-4.05-9-10.13s3.77-10.3,8.9-10.3c4.88,0,8.65,4.21,8.65,9.65,0,1.37-.48,1.85-1.85,1.85Zm11-2.49c-.16-3.88-2.2-6.16-5.53-6.16s-5.16,2.08-5.44,6.16Z"/><path class="cls-3" d="M174.54,260.45a1.35,1.35,0,0,1-1.45,1.32,2.56,2.56,0,0,1-1.6-.72,5.3,5.3,0,0,0-3.6-1.32c-2,0-3.49,1-3.49,2.44,0,1.28,1.2,2.16,4.33,3.28,4.48,1.61,6.33,3.29,6.33,5.89,0,3.49-3.05,6-7.33,6-3.81,0-7.45-1.88-7.45-3.85a1.39,1.39,0,0,1,1.36-1.44,3.37,3.37,0,0,1,1.72.84,7.18,7.18,0,0,0,4.49,1.61c2.2,0,3.88-1.21,3.88-2.73,0-1.36-1.28-2.4-4.6-3.68-4.33-1.69-6-3.25-6-5.57,0-3.21,2.88-5.61,6.73-5.61C171.21,256.88,174.54,258.64,174.54,260.45Z"/><path class="cls-3" d="M191.72,259.4a1.42,1.42,0,0,1-1.41,1.41,3,3,0,0,1-1.36-.44,5.49,5.49,0,0,0-2.56-.64c-3.45,0-5.77,3-5.77,7.37s2.32,7.37,5.77,7.37a5,5,0,0,0,2.72-.77,2.41,2.41,0,0,1,1.2-.4,1.26,1.26,0,0,1,1.29,1.33c0,1.52-2.25,2.68-5.17,2.68-5.45,0-9.09-4.05-9.09-10.13,0-6.25,3.6-10.3,9.09-10.3C189.47,256.88,191.72,258,191.72,259.4Z"/><path class="cls-3" d="M198,259.52a6.76,6.76,0,0,1,5.49-2.64c4.2,0,7,3,7,7.57v11.1a1.65,1.65,0,1,1-3.29,0v-10.9c0-2.92-1.88-4.92-4.64-4.92s-4.61,2-4.61,4.92v10.9a1.64,1.64,0,1,1-3.28,0V249.87a1.64,1.64,0,1,1,3.28,0v9.57Z"/><path class="cls-3" d="M228.24,258.52a1.54,1.54,0,1,1,3.08,0v17.15a1.54,1.54,0,1,1-3.08,0v-1.36h-.08a6.32,6.32,0,0,1-5.53,3c-5,0-8.69-4.33-8.69-10.21s3.69-10.22,8.73-10.22c2.17,0,3.65.72,5.49,2.69h.08Zm-11,8.54c0,4.52,2.16,7.41,5.48,7.41s5.49-2.93,5.49-7.37-2.16-7.37-5.49-7.37S217.23,262.65,217.23,267.06Zm4.36-14.7a2,2,0,1,1-2-2A2,2,0,0,1,221.59,252.36Zm7,0a2,2,0,1,1-2-2A2,2,0,0,1,228.56,252.36Z"/><path class="cls-3" d="M240,275.55a1.64,1.64,0,1,1-3.28,0V260h-1.36c-1,0-1.65-.53-1.65-1.41s.61-1.44,1.65-1.44h1.36v-4.68a4.07,4.07,0,0,1,4.36-4.33h1c1.08,0,1.88.64,1.88,1.48s-.64,1.36-1.8,1.36h-.81c-1,0-1.36.4-1.36,1.32v4.85h2.05c1.08,0,1.68.52,1.68,1.44s-.6,1.41-1.68,1.41H240Z"/><path class="cls-3" d="M247.9,252.8a1.65,1.65,0,1,1,3.29,0v4.32h1.36c1,0,1.64.52,1.64,1.44s-.6,1.41-1.64,1.41h-1.36v15.58a1.65,1.65,0,1,1-3.29,0V260h-1.36c-1,0-1.64-.53-1.64-1.41s.6-1.44,1.64-1.44h1.36Z"/><path class="cls-3" d="M25.65,306.7a1.65,1.65,0,1,1,3.29,0v10.58c0,3.48,1.56,5.24,4.61,5.24s4.64-1.76,4.64-5.24V306.7a1.65,1.65,0,1,1,3.29,0v10.7c0,5-3,8-7.93,8s-7.9-3-7.9-8Z"/><path class="cls-3" d="M49.2,307.58a6.77,6.77,0,0,1,5.49-2.64c4.21,0,7,3,7,7.57v11.1a1.64,1.64,0,1,1-3.28,0v-10.9c0-2.92-1.89-4.93-4.65-4.93s-4.61,2-4.61,4.93v10.9a1.64,1.64,0,1,1-3.28,0V306.7a1.64,1.64,0,1,1,3.28,0v.8Z"/><path class="cls-3" d="M79.12,297.93a1.65,1.65,0,1,1,3.29,0v25.68a1.65,1.65,0,1,1-3.29,0v-1H79c-1.08,1.93-2.68,2.77-5.21,2.77-5,0-8.61-4.25-8.61-10.22s3.61-10.21,8.45-10.21A6.39,6.39,0,0,1,79,307.66h.08ZM68.51,315.15c0,4.49,2.16,7.37,5.48,7.37s5.45-2.92,5.45-7.33-2.16-7.41-5.49-7.41S68.51,310.71,68.51,315.15Z"/><path class="cls-3" d="M96.46,300.21a1.61,1.61,0,0,1,1.76-1.8h6.49c7.17,0,11.82,5.21,11.82,13.34s-4.49,13.38-11.38,13.38H98.22a1.62,1.62,0,0,1-1.76-1.81Zm3.28,22.07h4.73c5.29,0,8.53-4,8.53-10.61s-3.28-10.41-8.77-10.41H99.74Z"/><path class="cls-3" d="M123.57,300.21a2,2,0,1,1-2-2A2,2,0,0,1,123.57,300.21Zm-.4,23.4a1.64,1.64,0,1,1-3.28,0V306.7a1.64,1.64,0,1,1,3.28,0Z"/><path class="cls-3" d="M129.62,316.44a6.14,6.14,0,0,0,1.72,4.48,5.72,5.72,0,0,0,4.25,1.6,7.68,7.68,0,0,0,5.29-2c.76-.6,1.08-.76,1.44-.76a1.34,1.34,0,0,1,1.16,1.4c0,1.92-4.41,4.17-8.13,4.17-5.41,0-9-4.05-9-10.14s3.76-10.29,8.89-10.29c4.88,0,8.65,4.21,8.65,9.65,0,1.36-.48,1.85-1.84,1.85Zm11-2.49c-.16-3.88-2.21-6.17-5.53-6.17s-5.17,2.09-5.45,6.17Z"/><path class="cls-3" d="M150.41,307.58a6.74,6.74,0,0,1,5.48-2.64c4.21,0,7,3,7,7.57v11.1a1.64,1.64,0,1,1-3.28,0v-10.9c0-2.92-1.88-4.93-4.65-4.93s-4.6,2-4.6,4.93v10.9a1.65,1.65,0,1,1-3.29,0V306.7a1.65,1.65,0,1,1,3.29,0v.8Z"/><path class="cls-3" d="M180.24,308.51a1.34,1.34,0,0,1-1.44,1.32,2.56,2.56,0,0,1-1.6-.72,5.27,5.27,0,0,0-3.61-1.33c-2,0-3.48,1-3.48,2.45,0,1.28,1.2,2.16,4.33,3.28,4.48,1.6,6.32,3.29,6.32,5.89,0,3.48-3,6-7.33,6-3.8,0-7.45-1.89-7.45-3.85a1.4,1.4,0,0,1,1.37-1.44,3.37,3.37,0,0,1,1.72.84,7.16,7.16,0,0,0,4.48,1.6c2.21,0,3.89-1.2,3.89-2.72,0-1.36-1.28-2.4-4.61-3.69-4.32-1.68-6-3.24-6-5.56,0-3.21,2.88-5.61,6.72-5.61C176.92,304.94,180.24,306.7,180.24,308.51Z"/><path class="cls-3" d="M185.25,300.86a1.64,1.64,0,1,1,3.28,0v4.32h1.36c1,0,1.65.52,1.65,1.44s-.61,1.4-1.65,1.4h-1.36v15.59a1.64,1.64,0,1,1-3.28,0V308h-1.37c-1,0-1.64-.52-1.64-1.4s.6-1.44,1.64-1.44h1.37Z"/><path class="cls-3" d="M197.18,323.61a1.64,1.64,0,1,1-3.28,0V297.93a1.64,1.64,0,1,1,3.28,0Z"/><path class="cls-3" d="M203.63,316.44a6.14,6.14,0,0,0,1.72,4.48,5.72,5.72,0,0,0,4.25,1.6,7.64,7.64,0,0,0,5.28-2c.77-.6,1.09-.76,1.45-.76a1.34,1.34,0,0,1,1.16,1.4c0,1.92-4.41,4.17-8.13,4.17-5.41,0-9-4.05-9-10.14s3.77-10.29,8.9-10.29c4.88,0,8.65,4.21,8.65,9.65,0,1.36-.48,1.85-1.84,1.85Zm11-2.49c-.16-3.88-2.2-6.17-5.52-6.17s-5.17,2.09-5.45,6.17Z"/><path class="cls-3" d="M224.74,300.21a2,2,0,1,1-2.05-2A2,2,0,0,1,224.74,300.21Zm-.41,23.4a1.64,1.64,0,1,1-3.28,0V306.7a1.64,1.64,0,1,1,3.28,0Z"/><path class="cls-3" d="M241.72,308.51a1.34,1.34,0,0,1-1.44,1.32,2.56,2.56,0,0,1-1.61-.72,5.26,5.26,0,0,0-3.6-1.33c-2,0-3.49,1-3.49,2.45,0,1.28,1.2,2.16,4.33,3.28,4.49,1.6,6.33,3.29,6.33,5.89,0,3.48-3.05,6-7.33,6-3.81,0-7.45-1.89-7.45-3.85a1.39,1.39,0,0,1,1.36-1.44,3.37,3.37,0,0,1,1.72.84,7.19,7.19,0,0,0,4.49,1.6c2.2,0,3.88-1.2,3.88-2.72,0-1.36-1.28-2.4-4.6-3.69-4.33-1.68-6-3.24-6-5.56,0-3.21,2.88-5.61,6.73-5.61C238.39,304.94,241.72,306.7,241.72,308.51Z"/><path class="cls-3" d="M246.72,300.86a1.64,1.64,0,1,1,3.28,0v4.32h1.37c1,0,1.64.52,1.64,1.44s-.6,1.4-1.64,1.4H250v15.59a1.64,1.64,0,1,1-3.28,0V308h-1.36c-1,0-1.64-.52-1.64-1.4s.6-1.44,1.64-1.44h1.36Z"/><path class="cls-3" d="M255.49,306.7a1.64,1.64,0,1,1,3.28,0v10.58c0,3.48,1.57,5.24,4.61,5.24s4.65-1.76,4.65-5.24V306.7a1.64,1.64,0,1,1,3.28,0v10.7c0,5-3,8-7.93,8s-7.89-3-7.89-8Z"/><path class="cls-3" d="M279,307.58a6.74,6.74,0,0,1,5.49-2.64c4.2,0,7,3,7,7.57v11.1a1.65,1.65,0,1,1-3.29,0v-10.9c0-2.92-1.88-4.93-4.64-4.93s-4.61,2-4.61,4.93v10.9a1.65,1.65,0,1,1-3.29,0V306.7a1.65,1.65,0,1,1,3.29,0v.8Z"/><path class="cls-3" d="M308.92,306.58a1.63,1.63,0,0,1,1.76-1.64,1.53,1.53,0,0,1,1.56,1.64v17.11c0,5.76-3.52,9.53-8.93,9.53-3.65,0-7.73-2-7.73-3.69a1.36,1.36,0,0,1,1.36-1.48,3.75,3.75,0,0,1,1.92.8,8.12,8.12,0,0,0,4.61,1.52c3.4,0,5.45-2.32,5.45-6.12v-1.77h-.08a5.59,5.59,0,0,1-5.17,2.89c-5,0-8.65-4.33-8.65-10.22s3.68-10.21,8.57-10.21a6.66,6.66,0,0,1,5.25,2.52h.08Zm-10.62,8.53c0,4.53,2.17,7.41,5.49,7.41s5.49-3,5.49-7.37-2.21-7.37-5.49-7.37S298.3,310.71,298.3,315.11Z"/><path class="cls-3" d="M319.05,316.44a6.14,6.14,0,0,0,1.72,4.48,5.71,5.71,0,0,0,4.25,1.6,7.64,7.64,0,0,0,5.28-2c.76-.6,1.08-.76,1.44-.76a1.34,1.34,0,0,1,1.17,1.4c0,1.92-4.41,4.17-8.13,4.17-5.41,0-9-4.05-9-10.14s3.77-10.29,8.89-10.29c4.89,0,8.66,4.21,8.66,9.65,0,1.36-.48,1.85-1.85,1.85ZM330,314c-.16-3.88-2.2-6.17-5.53-6.17s-5.16,2.09-5.44,6.17Z"/><path class="cls-3" d="M339.83,307.58a6.77,6.77,0,0,1,5.49-2.64c4.21,0,7,3,7,7.57v11.1a1.64,1.64,0,1,1-3.28,0v-10.9c0-2.92-1.89-4.93-4.65-4.93s-4.61,2-4.61,4.93v10.9a1.64,1.64,0,1,1-3.28,0V306.7a1.64,1.64,0,1,1,3.28,0v.8Z"/></g></g></svg>