<svg xmlns="http://www.w3.org/2000/svg" viewBox="0 0 377.98 377.98"><defs><style>.cls-1{fill:#6eb52c;}.cls-2{fill:#fefffd;}</style></defs><title>Asset 4</title><g id="Layer_2" data-name="Layer 2"><g id="Capa_1" data-name="Capa 1"><rect class="cls-1" width="377.98" height="377.98"/><path class="cls-2" d="M38,145.85c0,55.77,31.7,101,70.81,101,29.31,0,54.46-25.4,65.22-61.62a78.59,78.59,0,0,1-25.62-21.27,16.26,16.26,0,0,1-10.59,3.54c-7.42,0-13.43-8.73-13.43-13.73s6-4.38,13.43-4.38c.28,0,.55,0,.83.06a127.39,127.39,0,0,1-13-34.56c-5.42.35-11,.57-16.82.57-23.89,0-45.12-3.11-58.88-8a5.92,5.92,0,0,0-7.71,4.14A138.86,138.86,0,0,0,38,145.85Zm41.85,65.47a29,29,0,1,1,57.91,0,26.13,26.13,0,0,1-.74,6,1.56,1.56,0,0,1-1,1.13,1.59,1.59,0,0,1-1.51-.29c-5.52-4.63-14.9-7.71-25.66-7.71s-20.15,3.08-25.67,7.71a1.53,1.53,0,0,1-1.51.29,1.58,1.58,0,0,1-1-1.13A26.13,26.13,0,0,1,79.82,211.32ZM66.33,158.43c0-5,6-9.06,13.43-9.06s13.44-.61,13.44,4.38-6,13.73-13.44,13.73S66.33,163.43,66.33,158.43Z"/><path class="cls-2" d="M200.75,184.06c39.11,0,70.81-45.21,70.81-101a139.42,139.42,0,0,0-4.22-34.23,6,6,0,0,0-5.75-4.47,5.74,5.74,0,0,0-2,.34c-13.76,4.83-35,7.94-58.88,7.94s-45.12-3.11-58.88-7.94a5.78,5.78,0,0,0-2-.34,5.93,5.93,0,0,0-5.75,4.47A139.42,139.42,0,0,0,130,83.08C130,138.85,161.65,184.06,200.75,184.06Zm29-79.38c-7.42,0-13.44.62-13.44-4.38s6-13.72,13.44-13.72,13.43,4,13.43,9S237.19,104.68,229.77,104.68ZM171.8,136a26.61,26.61,0,0,1,.73-6,1.63,1.63,0,0,1,1.05-1.14,1.59,1.59,0,0,1,1.51.29c5.51,4.64,14.9,7.72,25.66,7.72s20.15-3.08,25.66-7.72A1.58,1.58,0,0,1,229,130a26.61,26.61,0,0,1,.73,6,29,29,0,1,1-57.9,0Zm-.06-31.33c-7.43,0-13.44-4.05-13.44-9.05s6-9,13.44-9,13.43,8.72,13.43,13.72S179.16,104.68,171.74,104.68Z"/><g id="_36" data-name="36"><path class="cls-2" d="M206.11,213.69h59.74a2.84,2.84,0,1,0,0-5.68H206.11a2.84,2.84,0,1,0,0,5.68Z"/><path class="cls-2" d="M152.69,241.48h59.74a2.84,2.84,0,1,0,0-5.68H152.69a2.84,2.84,0,1,0,0,5.68Z"/><path class="cls-2" d="M168.72,270.73a2.85,2.85,0,0,0,2.85,2.84H231.3a2.85,2.85,0,1,0,0-5.69H171.57A2.86,2.86,0,0,0,168.72,270.73Z"/><path class="cls-2" d="M202.91,303.76H149.24a2.84,2.84,0,1,0,0,5.68h53.67a2.84,2.84,0,0,0,0-5.68Z"/><path class="cls-2" d="M299.49,231.51A15.53,15.53,0,1,0,284,216,15.52,15.52,0,0,0,299.49,231.51Z"/><path class="cls-2" d="M325,227c-8.92,12.49-20.85,13.93-33.7,6.31-.87-.52-4.75-2.66-5.61-3.17-20.66-12.26-41.3-7.45-55.14,11.93-5.88,8.24,7.72,16.06,13.53,7.91,7.16-10,16.25-12.91,26.19-9.74-5.09,8.84-9.54,17.62-15.82,30.11S234.32,292.84,221,285c-9.62-5.62-18.29,8.2-8.7,13.8,18.2,10.64,39.54,4.11,50.43-9.72a10.29,10.29,0,0,0,1.21.54c8.9,3.1,20.57,11.35,24.12,14.28s9.66,17.83,13.29,25.32c4.4,9.08,18.6,2.46,14.19-6.66-4.11-8.5-11-25.45-16.39-29.74-4.32-3.44-12.7-9.85-19.8-13.48,4.8-9.31,9.81-18.53,15.08-27.58,16.8,5.15,32.77-.92,44.14-16.85C344.45,226.71,330.85,218.89,325,227Z"/></g></g></g></svg>