<svg xmlns="http://www.w3.org/2000/svg" viewBox="0 0 377.98 377.98"><defs><style>.cls-1{fill:#6eb52c;}.cls-2{fill:#fefffd;}</style></defs><title>Asset 29</title><g id="Layer_2" data-name="Layer 2"><g id="Capa_1" data-name="Capa 1"><rect class="cls-1" width="377.98" height="377.98"/><path class="cls-2" d="M106.94,124.18c0,30.3,17.23,54.86,38.47,54.86,15.93,0,29.59-13.8,35.44-33.47A42.53,42.53,0,0,1,166.93,134a8.88,8.88,0,0,1-5.76,1.92c-4,0-7.29-4.74-7.29-7.45s3.26-2.38,7.29-2.38c.16,0,.3,0,.45,0a69.37,69.37,0,0,1-7.07-18.78c-2.94.19-6,.31-9.14.31-13,0-24.51-1.69-32-4.32a3.22,3.22,0,0,0-4.19,2.25A75.85,75.85,0,0,0,106.94,124.18Zm22.74,35.57a15.73,15.73,0,1,1,31.46,0,14.23,14.23,0,0,1-.4,3.28.87.87,0,0,1-1.39.46c-3-2.52-8.09-4.19-13.94-4.19s-10.94,1.67-13.94,4.19a.87.87,0,0,1-1.39-.46A14.23,14.23,0,0,1,129.68,159.75ZM122.35,131c0-2.72,3.27-4.92,7.3-4.92s7.3-.34,7.3,2.38-3.27,7.45-7.3,7.45S122.35,133.73,122.35,131Z"/><path class="cls-2" d="M195.38,144.94c21.25,0,38.47-24.56,38.47-54.86a75.87,75.87,0,0,0-2.29-18.6,3.25,3.25,0,0,0-1.6-2,3.3,3.3,0,0,0-1.53-.38,3.19,3.19,0,0,0-1.06.18c-7.48,2.63-19,4.32-32,4.32s-24.51-1.69-32-4.32a3.29,3.29,0,0,0-1.07-.18,3.14,3.14,0,0,0-1.52.38,3.22,3.22,0,0,0-1.6,2,75.87,75.87,0,0,0-2.29,18.6C156.91,120.38,174.13,144.94,195.38,144.94Zm15.76-43.12c-4,0-7.3.33-7.3-2.38s3.27-7.46,7.3-7.46,7.3,2.2,7.3,4.92S215.18,101.82,211.14,101.82Zm-31.49,17a14.23,14.23,0,0,1,.4-3.28.86.86,0,0,1,1.39-.46c3,2.52,8.09,4.19,13.94,4.19s10.94-1.67,13.94-4.19a.86.86,0,0,1,1.39.46,14.23,14.23,0,0,1,.4,3.28,15.73,15.73,0,0,1-31.46,0Zm0-17c-4,0-7.3-2.21-7.3-4.92s3.26-4.92,7.3-4.92,7.3,4.74,7.3,7.46S183.65,101.82,179.62,101.82Z"/><g id="_36" data-name="36"><path class="cls-2" d="M198.29,161h32.46a1.55,1.55,0,0,0,0-3.09H198.29a1.55,1.55,0,0,0,0,3.09Z"/><path class="cls-2" d="M169.27,176.14h32.45a1.55,1.55,0,1,0,0-3.09H169.27a1.55,1.55,0,1,0,0,3.09Z"/><path class="cls-2" d="M178,192a1.54,1.54,0,0,0,1.54,1.54H212a1.55,1.55,0,0,0,0-3.09H179.52A1.54,1.54,0,0,0,178,192Z"/><path class="cls-2" d="M196.55,210H167.39a1.55,1.55,0,0,0,0,3.09h29.16a1.55,1.55,0,1,0,0-3.09Z"/><path class="cls-2" d="M249,170.72a8.44,8.44,0,1,0-8.44-8.43A8.43,8.43,0,0,0,249,170.72Z"/><path class="cls-2" d="M262.9,168.29c-4.84,6.79-11.33,7.57-18.31,3.43-.47-.28-2.58-1.44-3.05-1.72-11.22-6.66-22.44-4.05-30,6.48-3.19,4.48,4.2,8.72,7.36,4.3,3.88-5.44,8.82-7,14.23-5.29-2.77,4.8-5.19,9.57-8.6,16.35s-10.95,12.2-18.19,8c-5.23-3.05-9.94,4.46-4.73,7.5a21.38,21.38,0,0,0,27.4-5.28,4,4,0,0,0,.66.29c4.83,1.69,11.17,6.17,13.1,7.76s5.25,9.69,7.22,13.76c2.39,4.93,10.11,1.34,7.71-3.62-2.24-4.62-6-13.83-8.91-16.16a72.3,72.3,0,0,0-10.76-7.32c2.62-5.06,5.34-10.07,8.2-15,9.13,2.8,17.8-.49,24-9.15C273.45,168.11,266.06,163.87,262.9,168.29Z"/></g><path class="cls-2" d="M80.47,297.36a1.63,1.63,0,1,1-3.25,0V274a1.63,1.63,0,1,1,3.25,0v9.66l11.32-10.33c1-1,1.19-1.07,1.78-1.07A1.35,1.35,0,0,1,95,273.68a1.62,1.62,0,0,1-.67,1.43l-10.81,9.78,11.84,11.4a1.9,1.9,0,0,1,.63,1.35,1.53,1.53,0,0,1-1.62,1.47,2,2,0,0,1-1.55-.72L80.47,286.28Z"/><path class="cls-2" d="M97.57,280.65a1.63,1.63,0,1,1,3.25,0v10.46c0,3.44,1.54,5.18,4.55,5.18s4.59-1.74,4.59-5.18V280.65a1.63,1.63,0,1,1,3.25,0v10.58c0,4.95-2.93,7.88-7.84,7.88s-7.8-2.93-7.8-7.88Z"/><path class="cls-2" d="M120.77,297.36a1.62,1.62,0,1,1-3.24,0V272a1.62,1.62,0,1,1,3.24,0Z"/><path class="cls-2" d="M126.16,274.87a1.62,1.62,0,1,1,3.24,0v4.28h1.35c1,0,1.62.51,1.62,1.42s-.59,1.39-1.62,1.39H129.4v15.4a1.62,1.62,0,1,1-3.24,0V282h-1.35c-1,0-1.62-.51-1.62-1.39s.59-1.42,1.62-1.42h1.35Z"/><path class="cls-2" d="M134.71,280.65a1.63,1.63,0,1,1,3.25,0v10.46c0,3.44,1.54,5.18,4.55,5.18s4.59-1.74,4.59-5.18V280.65a1.63,1.63,0,1,1,3.25,0v10.58c0,4.95-2.93,7.88-7.84,7.88s-7.8-2.93-7.8-7.88Zm6.37-4.63a2.61,2.61,0,0,1-1.22.36,1.51,1.51,0,0,1-1.43-1.59c0-.55.44-1,1.27-1.34L144,271.7a3.18,3.18,0,0,1,1.27-.35,1.54,1.54,0,0,1,1.43,1.58c0,.56-.44,1-1.31,1.35Z"/><path class="cls-2" d="M158,282.32c1.11-2.06,2.85-3.41,4.47-3.41a1.66,1.66,0,0,1,1.79,1.66c0,.95-.64,1.51-2,1.79-2.74.51-4.36,2.57-4.32,5.62v9.38a1.63,1.63,0,1,1-3.25,0V280.65a1.63,1.63,0,1,1,3.25,0v1.67Z"/><path class="cls-2" d="M179,280.54a1.52,1.52,0,1,1,3,0v16.94a1.52,1.52,0,1,1-3,0v-1.34h-.08a6.29,6.29,0,0,1-5.47,3c-4.95,0-8.59-4.28-8.59-10.1s3.64-10.1,8.63-10.1c2.14,0,3.6.71,5.43,2.65H179ZM168.13,289c0,4.47,2.13,7.32,5.42,7.32S179,293.4,179,289s-2.14-7.29-5.43-7.29S168.13,284.61,168.13,289Z"/><path class="cls-2" d="M208.91,280.54a1.51,1.51,0,0,1,1.5-1.63,1.52,1.52,0,0,1,1.55,1.63v16.94a1.53,1.53,0,0,1-1.55,1.63,1.51,1.51,0,0,1-1.5-1.63v-1.34h-.08a6.29,6.29,0,0,1-5.47,3c-5,0-8.59-4.28-8.59-10.1s3.64-10.1,8.63-10.1c2.14,0,3.61.71,5.43,2.65h.08ZM198,289c0,4.47,2.14,7.32,5.42,7.32s5.43-2.89,5.43-7.28-2.14-7.29-5.43-7.29S198,284.61,198,289Z"/><path class="cls-2" d="M238.36,282.44a1.32,1.32,0,0,1-1.42,1.3,2.53,2.53,0,0,1-1.58-.71,5.26,5.26,0,0,0-3.57-1.31c-2,0-3.44,1-3.44,2.42,0,1.27,1.18,2.14,4.27,3.25,4.44,1.58,6.26,3.24,6.26,5.82,0,3.44-3,5.9-7.25,5.9-3.76,0-7.36-1.87-7.36-3.81a1.37,1.37,0,0,1,1.34-1.42,3.36,3.36,0,0,1,1.71.83,7.06,7.06,0,0,0,4.43,1.58c2.18,0,3.84-1.18,3.84-2.69,0-1.34-1.26-2.37-4.55-3.64-4.28-1.66-5.94-3.21-5.94-5.51,0-3.16,2.85-5.54,6.65-5.54C235.08,278.91,238.36,280.65,238.36,282.44Zm-11.52-8.12a1.28,1.28,0,0,1-.87-1.27,1.32,1.32,0,0,1,1.31-1.42,2.4,2.4,0,0,1,.83.15l3.48,1.39,3.49-1.39a2.7,2.7,0,0,1,.87-.15,1.31,1.31,0,0,1,1.31,1.38,1.29,1.29,0,0,1-.88,1.31l-4.79,2.06Z"/><path class="cls-2" d="M245.37,305.12a1.63,1.63,0,1,1-3.25,0V280.65a1.63,1.63,0,1,1,3.25,0v1h.08c1.07-1.9,2.65-2.73,5.15-2.73,5,0,8.51,4.24,8.51,10.1s-3.56,10.1-8.35,10.1a6.29,6.29,0,0,1-5.31-2.7h-.08ZM245.05,289c0,4.47,2.1,7.32,5.43,7.32s5.38-2.89,5.38-7.28-2.13-7.29-5.42-7.29S245.05,284.61,245.05,289Z"/><path class="cls-2" d="M279.11,289c0,5.86-3.65,10.1-8.68,10.1s-8.67-4.24-8.67-10c0-5.94,3.61-10.18,8.67-10.18S279.11,283.15,279.11,289ZM265,289c0,4.47,2.14,7.32,5.42,7.32s5.43-2.89,5.43-7.28-2.14-7.29-5.43-7.29S265,284.61,265,289Z"/><path class="cls-2" d="M285.88,282.32c1.1-2.06,2.85-3.41,4.47-3.41a1.65,1.65,0,0,1,1.78,1.66c0,.95-.63,1.51-2,1.79-2.73.51-4.35,2.57-4.31,5.62v9.38a1.63,1.63,0,1,1-3.25,0V280.65a1.63,1.63,0,1,1,3.25,0v1.67Z"/><path class="cls-2" d="M296.49,274.87a1.62,1.62,0,1,1,3.24,0v4.28h1.35c1,0,1.62.51,1.62,1.42s-.59,1.39-1.62,1.39h-1.35v15.4a1.62,1.62,0,1,1-3.24,0V282h-1.35c-1,0-1.62-.51-1.62-1.39s.59-1.42,1.62-1.42h1.35Z"/></g></g></svg>