<svg xmlns="http://www.w3.org/2000/svg" viewBox="0 0 377.98 377.98"><defs><style>.cls-1{fill:#6eb52c;}.cls-2,.cls-3{fill:#fefffd;}.cls-3{font-size:39.59px;font-family:VAGRundschriftD, VAG Rundschrift D;}.cls-4{letter-spacing:-0.02em;}.cls-5{letter-spacing:-0.01em;}.cls-6{letter-spacing:0em;}.cls-7{letter-spacing:0.02em;}</style></defs><title>theatre_sport</title><g id="Layer_2" data-name="Layer 2"><g id="Capa_1" data-name="Capa 1"><rect class="cls-1" width="377.98" height="377.98"/><path class="cls-2" d="M106.94,124.18c0,30.3,17.23,54.86,38.47,54.86,15.93,0,29.59-13.8,35.44-33.47A42.53,42.53,0,0,1,166.93,134a8.88,8.88,0,0,1-5.76,1.92c-4,0-7.29-4.74-7.29-7.45s3.26-2.38,7.29-2.38c.16,0,.3,0,.45,0a69.37,69.37,0,0,1-7.07-18.78c-2.94.19-6,.31-9.14.31-13,0-24.51-1.69-32-4.32a3.22,3.22,0,0,0-4.19,2.25A75.85,75.85,0,0,0,106.94,124.18Zm22.74,35.57a15.73,15.73,0,1,1,31.46,0,14.23,14.23,0,0,1-.4,3.28.87.87,0,0,1-1.39.46c-3-2.52-8.09-4.19-13.94-4.19s-10.94,1.67-13.94,4.19a.87.87,0,0,1-1.39-.46A14.23,14.23,0,0,1,129.68,159.75ZM122.35,131c0-2.72,3.27-4.92,7.3-4.92s7.3-.34,7.3,2.38-3.27,7.45-7.3,7.45S122.35,133.73,122.35,131Z"/><path class="cls-2" d="M195.38,144.94c21.25,0,38.47-24.56,38.47-54.86a75.87,75.87,0,0,0-2.29-18.6,3.25,3.25,0,0,0-1.6-2,3.3,3.3,0,0,0-1.53-.38,3.19,3.19,0,0,0-1.06.18c-7.48,2.63-19,4.32-32,4.32s-24.51-1.69-32-4.32a3.29,3.29,0,0,0-1.07-.18,3.14,3.14,0,0,0-1.52.38,3.22,3.22,0,0,0-1.6,2,75.87,75.87,0,0,0-2.29,18.6C156.91,120.38,174.13,144.94,195.38,144.94Zm15.76-43.12c-4,0-7.3.33-7.3-2.38s3.27-7.46,7.3-7.46,7.3,2.2,7.3,4.92S215.18,101.82,211.14,101.82Zm-31.49,17a14.23,14.23,0,0,1,.4-3.28.86.86,0,0,1,1.39-.46c3,2.52,8.09,4.19,13.94,4.19s10.94-1.67,13.94-4.19a.86.86,0,0,1,1.39.46,14.23,14.23,0,0,1,.4,3.28,15.73,15.73,0,0,1-31.46,0Zm0-17c-4,0-7.3-2.21-7.3-4.92s3.26-4.92,7.3-4.92,7.3,4.74,7.3,7.46S183.65,101.82,179.62,101.82Z"/><g id="_36" data-name="36"><path class="cls-2" d="M198.29,161h32.46a1.55,1.55,0,0,0,0-3.09H198.29a1.55,1.55,0,0,0,0,3.09Z"/><path class="cls-2" d="M169.27,176.14h32.45a1.55,1.55,0,1,0,0-3.09H169.27a1.55,1.55,0,1,0,0,3.09Z"/><path class="cls-2" d="M178,192a1.54,1.54,0,0,0,1.54,1.54H212a1.55,1.55,0,0,0,0-3.09H179.52A1.54,1.54,0,0,0,178,192Z"/><path class="cls-2" d="M196.55,210H167.39a1.55,1.55,0,0,0,0,3.09h29.16a1.55,1.55,0,1,0,0-3.09Z"/><path class="cls-2" d="M249,170.72a8.44,8.44,0,1,0-8.44-8.43A8.43,8.43,0,0,0,249,170.72Z"/><path class="cls-2" d="M262.9,168.29c-4.84,6.79-11.33,7.57-18.31,3.43-.47-.28-2.58-1.44-3.05-1.72-11.22-6.66-22.44-4.05-30,6.48-3.19,4.48,4.2,8.72,7.36,4.3,3.88-5.44,8.82-7,14.23-5.29-2.77,4.8-5.19,9.57-8.6,16.35s-10.95,12.2-18.19,8c-5.23-3.05-9.94,4.46-4.73,7.5a21.38,21.38,0,0,0,27.4-5.28,4,4,0,0,0,.66.29c4.83,1.69,11.17,6.17,13.1,7.76s5.25,9.69,7.22,13.76c2.39,4.93,10.11,1.34,7.71-3.62-2.24-4.62-6-13.83-8.91-16.16a72.3,72.3,0,0,0-10.76-7.32c2.62-5.06,5.34-10.07,8.2-15,9.13,2.8,17.8-.49,24-9.15C273.45,168.11,266.06,163.87,262.9,168.29Z"/></g><text class="cls-3" transform="translate(60.99 298.87)"><tspan class="cls-4">K</tspan><tspan x="22.96" y="0">ultú</tspan><tspan class="cls-5" x="89.12" y="0">r</tspan><tspan x="102.98" y="0">a a </tspan><tspan class="cls-6" x="167.12" y="0">š</tspan><tspan x="184.27" y="0">po</tspan><tspan class="cls-7" x="226.87" y="0">r</tspan><tspan x="241.99" y="0">t</tspan></text></g></g></svg>