<svg xmlns="http://www.w3.org/2000/svg" viewBox="0 0 377.98 377.98"><defs><style>.cls-1{fill:#6eb52c;}.cls-2{fill:#fefffd;}.cls-3{fill:#fff;}</style></defs><title>Asset 36</title><g id="Layer_2" data-name="Layer 2"><g id="Capa_1" data-name="Capa 1"><rect class="cls-1" width="377.98" height="377.98"/><path class="cls-2" d="M106.94,124.18c0,30.3,17.23,54.86,38.47,54.86,15.93,0,29.59-13.8,35.44-33.47A42.53,42.53,0,0,1,166.93,134a8.88,8.88,0,0,1-5.76,1.92c-4,0-7.29-4.74-7.29-7.45s3.26-2.38,7.29-2.38c.16,0,.3,0,.45,0a69.37,69.37,0,0,1-7.07-18.78c-2.94.19-6,.31-9.14.31-13,0-24.51-1.69-32-4.32a3.22,3.22,0,0,0-4.19,2.25A75.85,75.85,0,0,0,106.94,124.18Zm22.74,35.57a15.73,15.73,0,1,1,31.46,0,14.23,14.23,0,0,1-.4,3.28.87.87,0,0,1-1.39.46c-3-2.52-8.09-4.19-13.94-4.19s-10.94,1.67-13.94,4.19a.87.87,0,0,1-1.39-.46A14.23,14.23,0,0,1,129.68,159.75ZM122.35,131c0-2.72,3.27-4.92,7.3-4.92s7.3-.34,7.3,2.38-3.27,7.45-7.3,7.45S122.35,133.73,122.35,131Z"/><path class="cls-2" d="M195.38,144.94c21.25,0,38.47-24.56,38.47-54.86a75.87,75.87,0,0,0-2.29-18.6,3.25,3.25,0,0,0-1.6-2,3.3,3.3,0,0,0-1.53-.38,3.19,3.19,0,0,0-1.06.18c-7.48,2.63-19,4.32-32,4.32s-24.51-1.69-32-4.32a3.29,3.29,0,0,0-1.07-.18,3.14,3.14,0,0,0-1.52.38,3.22,3.22,0,0,0-1.6,2,75.87,75.87,0,0,0-2.29,18.6C156.91,120.38,174.13,144.94,195.38,144.94Zm15.76-43.12c-4,0-7.3.33-7.3-2.38s3.27-7.46,7.3-7.46,7.3,2.2,7.3,4.92S215.18,101.82,211.14,101.82Zm-31.49,17a14.23,14.23,0,0,1,.4-3.28.86.86,0,0,1,1.39-.46c3,2.52,8.09,4.19,13.94,4.19s10.94-1.67,13.94-4.19a.86.86,0,0,1,1.39.46,14.23,14.23,0,0,1,.4,3.28,15.73,15.73,0,0,1-31.46,0Zm0-17c-4,0-7.3-2.21-7.3-4.92s3.26-4.92,7.3-4.92,7.3,4.74,7.3,7.46S183.65,101.82,179.62,101.82Z"/><g id="_36" data-name="36"><path class="cls-2" d="M198.29,161h32.46a1.55,1.55,0,0,0,0-3.09H198.29a1.55,1.55,0,0,0,0,3.09Z"/><path class="cls-2" d="M169.27,176.14h32.45a1.55,1.55,0,1,0,0-3.09H169.27a1.55,1.55,0,1,0,0,3.09Z"/><path class="cls-2" d="M178,192a1.54,1.54,0,0,0,1.54,1.54H212a1.55,1.55,0,0,0,0-3.09H179.52A1.54,1.54,0,0,0,178,192Z"/><path class="cls-2" d="M196.55,210H167.39a1.55,1.55,0,0,0,0,3.09h29.16a1.55,1.55,0,1,0,0-3.09Z"/><path class="cls-2" d="M249,170.72a8.44,8.44,0,1,0-8.44-8.43A8.43,8.43,0,0,0,249,170.72Z"/><path class="cls-2" d="M262.9,168.29c-4.84,6.79-11.33,7.57-18.31,3.43-.47-.28-2.58-1.44-3.05-1.72-11.22-6.66-22.44-4.05-30,6.48-3.19,4.48,4.2,8.72,7.36,4.3,3.88-5.44,8.82-7,14.23-5.29-2.77,4.8-5.19,9.57-8.6,16.35s-10.95,12.2-18.19,8c-5.23-3.05-9.94,4.46-4.73,7.5a21.38,21.38,0,0,0,27.4-5.28,4,4,0,0,0,.66.29c4.83,1.69,11.17,6.17,13.1,7.76s5.25,9.69,7.22,13.76c2.39,4.93,10.11,1.34,7.71-3.62-2.24-4.62-6-13.83-8.91-16.16a72.3,72.3,0,0,0-10.76-7.32c2.62-5.06,5.34-10.07,8.2-15,9.13,2.8,17.8-.49,24-9.15C273.45,168.11,266.06,163.87,262.9,168.29Z"/></g><path class="cls-3" d="M68.41,297.72a1.65,1.65,0,1,1-3.29,0V274.05a1.65,1.65,0,1,1,3.29,0v9.78l11.45-10.46c1-1,1.2-1.08,1.8-1.08a1.37,1.37,0,0,1,1.41,1.48,1.61,1.61,0,0,1-.69,1.44l-10.93,9.9,12,11.53a1.89,1.89,0,0,1,.64,1.37,1.55,1.55,0,0,1-1.65,1.48,2,2,0,0,1-1.56-.72L68.41,286.51Z"/><path class="cls-3" d="M85.71,280.82a1.64,1.64,0,1,1,3.28,0V291.4c0,3.48,1.56,5.24,4.61,5.24s4.64-1.76,4.64-5.24V280.82a1.65,1.65,0,1,1,3.29,0v10.7c0,5-3,8-7.93,8s-7.89-3-7.89-8Z"/><path class="cls-3" d="M109.18,297.72a1.65,1.65,0,1,1-3.29,0V272.05a1.65,1.65,0,1,1,3.29,0Z"/><path class="cls-3" d="M114.62,275a1.65,1.65,0,1,1,3.29,0v4.33h1.36c1,0,1.64.52,1.64,1.44s-.6,1.4-1.64,1.4h-1.36v15.58a1.65,1.65,0,1,1-3.29,0V282.14h-1.36c-1,0-1.64-.52-1.64-1.4s.6-1.44,1.64-1.44h1.36Z"/><path class="cls-3" d="M123.39,280.82a1.65,1.65,0,1,1,3.29,0V291.4c0,3.48,1.56,5.24,4.6,5.24s4.65-1.76,4.65-5.24V280.82a1.64,1.64,0,1,1,3.28,0v10.7c0,5-3,8-7.93,8s-7.89-3-7.89-8Z"/><path class="cls-3" d="M146.94,282.5c1.12-2.08,2.88-3.44,4.53-3.44a1.67,1.67,0,0,1,1.8,1.68c0,1-.64,1.52-2,1.8-2.77.53-4.41,2.61-4.37,5.69v9.49a1.64,1.64,0,1,1-3.28,0v-16.9a1.64,1.64,0,1,1,3.28,0v1.68Z"/><path class="cls-3" d="M164.76,280.82a1.65,1.65,0,1,1,3.29,0V291.4c0,3.48,1.56,5.24,4.6,5.24s4.65-1.76,4.65-5.24V280.82a1.64,1.64,0,1,1,3.28,0v10.7c0,5-3,8-7.93,8s-7.89-3-7.89-8Z"/><path class="cls-3" d="M188.31,281.7a6.74,6.74,0,0,1,5.49-2.64c4.2,0,7,3,7,7.57v11.09a1.65,1.65,0,1,1-3.29,0V286.83c0-2.92-1.88-4.93-4.64-4.93s-4.61,2-4.61,4.93v10.89a1.64,1.64,0,1,1-3.28,0v-16.9a1.64,1.64,0,1,1,3.28,0v.8Z"/><path class="cls-3" d="M218.23,272.05a1.64,1.64,0,1,1,3.28,0v25.67a1.64,1.64,0,1,1-3.28,0v-1h-.08c-1.08,1.93-2.69,2.77-5.21,2.77-5,0-8.61-4.25-8.61-10.22s3.6-10.21,8.45-10.21a6.4,6.4,0,0,1,5.37,2.72h.08Zm-10.62,17.22c0,4.49,2.17,7.37,5.49,7.37s5.45-2.92,5.45-7.33-2.16-7.41-5.49-7.41S207.61,284.83,207.61,289.27Z"/><path class="cls-3" d="M248.71,275.41a1.45,1.45,0,0,1-1.41,1.49,2.85,2.85,0,0,1-1.56-.6,5.64,5.64,0,0,0-3.6-1.17c-2.57,0-4.33,1.57-4.33,3.73s1.36,3.28,5.33,4.61c3.16,1,5.12,2.16,6.09,3.56a7.14,7.14,0,0,1,1.24,4.09c0,4.88-3.77,8.37-9.05,8.37-4,0-7.41-1.52-7.41-3.33a1.46,1.46,0,0,1,1.32-1.6,3,3,0,0,1,1.56.64,8.33,8.33,0,0,0,4.53,1.44,5.25,5.25,0,0,0,5.52-5.36c0-2.33-1.4-3.57-5.56-4.93-3.09-1-5-2.08-5.93-3.36a6.46,6.46,0,0,1-1.16-3.73c0-3.85,3.52-7,7.85-7C245.62,272.29,248.71,273.77,248.71,275.41Z"/><path class="cls-3" d="M256.83,305.57a1.64,1.64,0,1,1-3.28,0V280.82a1.64,1.64,0,1,1,3.28,0v1h.08c1.08-1.92,2.69-2.76,5.21-2.76,5,0,8.61,4.29,8.61,10.21s-3.6,10.22-8.45,10.22a6.35,6.35,0,0,1-5.37-2.73h-.08Zm-.32-16.34c0,4.53,2.13,7.41,5.49,7.41s5.45-2.92,5.45-7.37-2.17-7.37-5.49-7.37S256.51,284.83,256.51,289.23Z"/><path class="cls-3" d="M291,289.27c0,5.93-3.69,10.22-8.78,10.22s-8.77-4.29-8.77-10.14c0-6,3.65-10.29,8.77-10.29S291,283.35,291,289.27Zm-14.26,0c0,4.53,2.16,7.41,5.48,7.41s5.49-2.92,5.49-7.37-2.16-7.37-5.49-7.37S276.7,284.83,276.7,289.23Z"/><path class="cls-3" d="M297.8,282.5c1.12-2.08,2.89-3.44,4.53-3.44a1.67,1.67,0,0,1,1.8,1.68c0,1-.64,1.52-2,1.8-2.77.53-4.41,2.61-4.37,5.69v9.49a1.64,1.64,0,1,1-3.28,0v-16.9a1.64,1.64,0,1,1,3.28,0v1.68Z"/><path class="cls-3" d="M308.54,275a1.64,1.64,0,1,1,3.28,0v4.33h1.36c1,0,1.64.52,1.64,1.44s-.6,1.4-1.64,1.4h-1.36v15.58a1.64,1.64,0,1,1-3.28,0V282.14h-1.37c-1,0-1.64-.52-1.64-1.4s.6-1.44,1.64-1.44h1.37Z"/></g></g></svg>