<svg xmlns="http://www.w3.org/2000/svg" viewBox="0 0 120 120"><defs><style>.cls-1{fill:#fff;}</style></defs><title>Asset 10</title><g id="Layer_2" data-name="Layer 2"><g id="menu"><path class="cls-1" d="M0,0V120H120V0ZM101,88A10,10,0,0,1,91,98H29A10,10,0,0,1,19,88V32A10,10,0,0,1,29,22H91a10,10,0,0,1,10,10Z"/><path class="cls-1" d="M83.26,42.08c0-3.46-1.59-5.46-7.08-5.46h-29c-8.56,0-10.75,2.11-10.75,8.44v30c0,6.33,2.19,8.45,10.75,8.45H77.61c5.4,0,6.83-1.94,6.83-5.27,0-3.53-1.6-5.59-7.08-5.59H53.46a.39.39,0,0,1-.37-.37V65a.38.38,0,0,1,.37-.37H72.65c4.78,0,6.64-1.86,6.64-5.2,0-3.52-1.73-5-7.06-5H53.46a.39.39,0,0,1-.37-.37V47.65a.38.38,0,0,1,.37-.37h23c5.41,0,6.83-1.94,6.83-5.2m-59-9.94a5.39,5.39,0,0,1,5.48-5.29H90.3a5.39,5.39,0,0,1,5.48,5.29V87.48a5.39,5.39,0,0,1-5.48,5.29H29.73a5.39,5.39,0,0,1-5.48-5.29Z"/></g></g></svg>