<svg xmlns="http://www.w3.org/2000/svg" xmlns:xlink="http://www.w3.org/1999/xlink" viewBox="0 0 82.04 76"><defs><style>.cls-1{fill:none;}.cls-2{fill:#fff;}.cls-3{clip-path:url(#clip-path);}.cls-4{clip-path:url(#clip-path-2);}.cls-5{fill:#6abd45;}</style><clipPath id="clip-path"><rect class="cls-1" x="5.27" y="4.85" width="71.54" height="65.92"/></clipPath><clipPath id="clip-path-2"><rect class="cls-1" x="5.27" y="4.85" width="71.54" height="65.92"/></clipPath></defs><title>Asset 6</title><g id="Layer_2" data-name="Layer 2"><g id="menu"><rect class="cls-2" width="82.04" height="76" rx="10" ry="10"/><g id="STEFE_E" data-name="STEFE E"><g class="cls-3"><g class="cls-4"><path class="cls-5" d="M64.28,20.08c0-3.46-1.59-5.46-7.08-5.46h-29c-8.57,0-10.75,2.11-10.75,8.44v30c0,6.33,2.18,8.44,10.75,8.44H58.63c5.4,0,6.83-1.94,6.83-5.26,0-3.53-1.6-5.59-7.08-5.59H34.48a.38.38,0,0,1-.37-.37V42.95a.38.38,0,0,1,.37-.37H53.67c4.79,0,6.64-1.85,6.64-5.2,0-3.51-1.73-5-7.06-5H34.48a.38.38,0,0,1-.37-.37V25.65a.38.38,0,0,1,.37-.37h23c5.41,0,6.83-1.94,6.83-5.2m-59-9.94a5.39,5.39,0,0,1,5.48-5.29H71.32a5.39,5.39,0,0,1,5.48,5.29V65.48a5.39,5.39,0,0,1-5.48,5.29H10.74a5.39,5.39,0,0,1-5.48-5.29Z"/></g></g></g></g></g></svg>