<svg xmlns="http://www.w3.org/2000/svg" viewBox="0 0 669.99 330.64"><defs><style>.cls-1{fill:#fecb00;}.cls-2{fill:#fff;stroke:#878787;stroke-miterlimit:10;}</style></defs><title>Asset 1</title><g id="Layer_2" data-name="Layer 2"><g id="Layer_1-2" data-name="Layer 1"><path class="cls-1" d="M667.79,89c2.28,0,2.54.28,2.42,4-.21,6.22-2.06,10.28-5.35,11.11-2.28.57-3.16,1.8-4.16,5.79-.71,2.79-1.68,5.32-2.16,5.62s-.63,1.52-.32,2.72c.37,1.39-.77,3.85-3.14,6.8-3.47,4.31-3.63,4.9-2.54,9,.92,3.43.84,4.74-.35,5.93-.84.84-2.25,5.3-3.12,9.92-1.36,7.18-2.15,8.88-5.46,11.77-2.13,1.86-4.21,4.47-4.63,5.8s-3.27,4.12-6.33,6.19l-5.57,3.77.4,6.37c.23,3.49.73,6.88,1.13,7.52a1.4,1.4,0,0,1-.5,1.91c-.73.45-1.09,3.84-.9,8.53.28,6.73,0,8.1-2.13,10.23s-2.86,2.26-5.27,1.16c-2.2-1-4-.92-8.22.35a38.79,38.79,0,0,1-8.41,1.65c-1.67,0-3.35.52-3.73,1.13s-1.86,1.13-3.27,1.13a7.26,7.26,0,0,0-4.61,2.25c-1.13,1.24-2.71,2.26-3.52,2.26-2.31,0-9.44-3.68-9.44-4.87,0-.58-1.7-2.67-3.78-4.63-4.12-3.88-7.13-9.73-7.28-14.13-.13-3.8-3.31-5.93-7.65-5.13-3.2.59-3.58.35-4.18-2.68-1-5.19-11.55-11.46-13.61-8.13-.34.54-3.24,1.24-6.45,1.55-4,.38-6.31,1.23-7.31,2.68-3.1,4.49-3.84,5-5.9,3.88-2.28-1.22-10.74,1.25-13.82,4-1.14,1-2.13,1.24-2.55.56s-2.33-1.47-4.34-1.89a15.6,15.6,0,0,1-4.81-1.72c-.64-.51-3.42-.42-6.19.2-4.69,1.06-5.17.94-7.32-1.75-1.27-1.59-2.68-2.89-3.15-2.89a14.89,14.89,0,0,1-4.11-2.41c-3-2.22-4.09-2.35-14.12-1.61-7.59.56-11.93,1.44-14.4,2.94a27,27,0,0,1-8.4,2.88c-5.92.89-8.39,3.12-8,7.19.22,2-.74,4.31-2.92,6.88-4,4.72-7.34,11.88-7.37,15.73a9.91,9.91,0,0,1-1.68,5.07,8.75,8.75,0,0,0-1.69,4.18c0,1.1-2.14,4.28-4.71,7.07L408.22,240l-2-.79c-2.43-2.28-4.09-3.51-5.26-1.95-1.61,2.15-3.6,3.5-7.35,3.68-2.28.1-3,1-3.45,4-.53,3.47-1.3,4-8.94,8.83-.93.59-3.81.91-5.36,1.24s-4.49,2.12-6.54,4c-4.52,4.14-5.13,4.19-6.75.63-1.54-3.38-5.39-4.52-9.7-2.88-3.13,1.19-3.19,1.14-2.54-2.09.84-4.2-1.19-6-6.79-6a8.19,8.19,0,0,1-6.73-2.71c-3.15-3.39-4-3.36-11.53.42-4.58,2.31-6.36,3.92-7.12,6.45a58.36,58.36,0,0,1-2,5.63,21,21,0,0,0-1.32,5c-.42,3.48-3.15,4.29-15.1,4.43-7.32.09-9.71.56-12,2.37-3.14,2.47-12.51,3.17-13.83,1-.45-.73-1.95-.89-3.73-.41a104,104,0,0,1-10.85,1.68c-9.13,1-22,3.62-24,4.86-.76.47-1.38,2.05-1.38,3.52,0,1.67-1.23,3.55-3.26,5-3,2.11-3.26,2.91-3.21,8.8a40.21,40.21,0,0,1-.74,9c-.58,1.81-.09,3.11,1.8,4.84,9.21,8.4,9.48,9.76,1.83,9.21-4.75-.35-5.42,0-10.37,4.93-5.21,5.2-5.39,5.28-10.6,4.48a70.77,70.77,0,0,0-8.67-.78l-9.12.09a54.58,54.58,0,0,0-13,2.31c-7.7,2.42-9.12,2.5-19.59,1.11a81.89,81.89,0,0,1-11.83-2.52c-5.09-1.64-9.32-1.68-29.56-.29-6.15.43-11,.32-11-.23s-2.15-2.17-4.78-3.62a48.12,48.12,0,0,1-7.06-4.65,28.16,28.16,0,0,0-6.51-3.82c-2.48-1-4.69-2.92-5.29-4.52s-2.83-3.9-5-5.31-4-3.13-4-3.81c0-1.08-6.69-9.57-13.42-17.06a8.16,8.16,0,0,0-5.19-2.54c-1.66,0-3,.14-4.52-1.46-2.77-3-6.77-4.81-12.57-3.15-2.66.77-3.71.65-4.14-.45-.31-.82-2-1.81-3.85-2.21-2.75-.6-3.3-1.29-3.39-4.29-.05-2,.18-3.45.76-4.15,1.05-1.26-5-9.88-6.68-9.9-.42,0-.11-2.89-1.91-4.68-2.49-2.5-3.61-5.15-4.77-11.25s-2.13-8.4-4-9.62c-1.69-1.11-3.55-4.27-4-7.62C5.84,219.12,5,219,3,218.07c-3.17-1.45-3.47-8.1-1.62-14.14,1.34-4.37,9.15-16.26,12.9-19.63,1.88-1.68,2.39-3.45,2.39-8.26,0-4.42.63-6.92,2.25-9a10.8,10.8,0,0,0,2.26-5.46c0-1.43.5-2.91,1.12-3.29a3.63,3.63,0,0,0,1.13-2.79c0-4.09,5.5-13.27,8.38-14a7.64,7.64,0,0,0,4.24-3.78c2.25-4.72,5.87-4.55,13.17.59,8.85,6.23,10.65,6.61,17.07,3.6l5.41-2.53,4.75,2.36c4.41,2.18,5,2.23,8.8.66a46.49,46.49,0,0,0,6.87-3.61,51.83,51.83,0,0,1,9.55-4.16c6.75-2.26,6.89-2.4,10.74-10.69.43-.92,3-2,5.6-2.5,6.15-1,8.58-3.28,9.44-8.68.38-2.37,1.48-5,2.45-5.77s6.11-2.11,11.41-2.89c12.75-1.89,14.46-3.47,15.49-14.3,1-10.52,2.37-15.58,5.18-19.16,1.62-2.06,2.07-3.76,1.54-5.86-.59-2.37,0-3.72,3.07-6.91,5.14-5.35,8.91-7.14,15-7.14,4.7,0,5.61-.48,10.18-5.35,2.76-2.94,5-6.36,5.05-7.6s2.56-4.44,5.93-7.37C213.46,21.17,215.65,20,223,19.83c3.69-.09,6.95.24,7.26.73,1.09,1.77,4.58.87,7.13-1.85,2-2.15,3.37-2.63,6.11-2.18,9,1.49,8.57,1.09,8.47,7.49-.14,9.53,0,11.21,1.37,12.82,1.75,2.1,7.32,1.9,11.24-.41,3-1.77,3.42-1.78,5.06-.14,1.48,1.48,2.51,1.58,5.91.57,4.82-1.43,5.77-2.51,5.79-6.54,0-1.64.78-3.27,1.71-3.63s1.69-2.12,1.69-4.55c0-4.95,4.89-8.89,10.44-8.41,4.48.39,6.45-.71,6.45-3.57,0-1.2,1.9-3.92,4.22-6L310,.25l3.53,3.86a19.3,19.3,0,0,1,4.3,8.07,54.1,54.1,0,0,0,3.4,10.05c2.17,4.79,3.21,5.89,5.84,6.19s3.21.95,3.28,3.18c.17,5.25.45,5.64,4.14,5.65a12.58,12.58,0,0,1,5.32,1.07c1.14.72,2.3.48,3.69-.78,3.69-3.34,4.74-.6,5.7,14.9a12.81,12.81,0,0,0,1,4.66,2.23,2.23,0,0,1-.84,2.67,5,5,0,0,0-1.68,3.37,5.06,5.06,0,0,1-1.69,3.37,4.41,4.41,0,0,0-.34,6.54c.75.74,3.82,1.35,6.83,1.35,4.11,0,6.41-.7,9.18-2.82,4.9-3.74,6.88-3.55,12.07,1.13,7.06,6.38,11,5,11.13-3.94a10.12,10.12,0,0,1,1.73-5,23,23,0,0,0,2.81-6.43c.78-2.9,1.63-4,2.72-3.61s2.23-.65,3.28-2.67c1.5-2.9,2.29-3.28,6.87-3.28s7.84-1.41,7.95-3.53a12.46,12.46,0,0,1,1.37-3.17c.73-1.32,1-2.71.61-3.1-1.26-1.27,1.88-.76,4.18.68,1.83,1.14,2.9,1,6.09-.7,3.82-2.06,3.93-2,7.23.3,4.52,3.22,11.5,3.23,13.5,0,1.05-1.68,2.21-2.17,4-1.72a6.91,6.91,0,0,0,5-1.09c3-2.13,4.32-1.42,5.27,2.93.41,1.85,1.13,3.36,1.6,3.36s2.66,1.74,4.85,3.87c2.7,2.62,4.7,3.69,6.2,3.29s3.37.59,5.75,3c3.41,3.42,3.68,3.49,7.65,2.05a14.1,14.1,0,0,0,5.92-4.12c3.49-5.09,5.78-6.93,8.6-6.93,4.23,0,4.91-3.24,1.28-6.14s-3.79-4-.67-4a10.85,10.85,0,0,0,4.34-1.08c1.56-.84,2.62-.45,4.63,1.69,3.5,3.72,4.65,3.52,9.28-1.6,3.17-3.51,4.53-4.26,6.9-3.81,1.63.31,3.23,1,3.57,1.56s2.5,1,4.8,1a14,14,0,0,1,6.79,1.82c2.16,1.52,3.12,1.59,5.6.46,5.14-2.35,18.19-2.73,23-.68,2.32,1,4.22,2.23,4.22,2.74s1.27,1.5,2.81,2.21,2.82,2,2.82,3c0,2.25.6,2.16,4.41-.65L585.09,37l4.71,3.41c2.59,1.88,5.67,4.54,7.45,4.93,2.39.52,3.93.75,4.45,3.13a9.32,9.32,0,0,0,3.45,5c2.21,1.44,2.74,2.75,2.74,6.66,0,6,2.08,8,9.22,9.08a20.75,20.75,0,0,1,8.21,3.07c1.68,1.33,3.88,2.07,5.14,1.74,1.58-.41,2.21,0,2.21,1.42,0,2.58,9.09,6.16,13.44,5.3,2.46-.5,3.81.06,6.22,2.58C655.29,86.45,662.34,89,667.79,89Z" transform="translate(-0.25 -0.25)"/><circle class="cls-2" cx="269.99" cy="158.99" r="6"/><circle class="cls-2" cx="269.99" cy="183.65" r="6"/><circle class="cls-2" cx="269.99" cy="175.65" r="6"/><circle class="cls-2" cx="250.17" cy="166.99" r="6"/><circle class="cls-2" cx="434.33" cy="169.65" r="6"/><circle class="cls-2" cx="386.66" cy="166.99" r="6"/><circle class="cls-2" cx="298.66" cy="151.74" r="6"/><circle class="cls-2" cx="440.33" cy="106.65" r="6"/><circle class="cls-2" cx="343.16" cy="204.15" r="6"/><circle class="cls-2" cx="258.99" cy="222.65" r="6"/><circle class="cls-2" cx="275.99" cy="210.15" r="6"/><circle class="cls-2" cx="293.66" cy="247.32" r="6"/><circle class="cls-2" cx="390.99" cy="218.99" r="6"/><circle class="cls-2" cx="412.74" cy="210.15" r="6"/><circle class="cls-2" cx="87.33" cy="214.32" r="6"/><circle class="cls-2" cx="246.99" cy="94.65" r="6"/></g></g></svg>